<?xml version="1.0" encoding="utf-8"?>
<svg xmlns="http://www.w3.org/2000/svg" xmlns:xlink="http://www.w3.org/1999/xlink" width="600" height="400" viewBox="0 0 2400 1600">
<defs>
  <clipPath id="clip320">
    <rect x="0" y="0" width="2400" height="1600"/>
  </clipPath>
</defs>
<path clip-path="url(#clip320)" d="M0 1600 L2400 1600 L2400 0 L0 0  Z" fill="#ffffff" fill-rule="evenodd" fill-opacity="1"/>
<defs>
  <clipPath id="clip321">
    <rect x="480" y="0" width="1681" height="1600"/>
  </clipPath>
</defs>
<path clip-path="url(#clip320)" d="M249.704 1403.57 L2352.76 1403.57 L2352.76 47.2441 L249.704 47.2441  Z" fill="#ffffff" fill-rule="evenodd" fill-opacity="1"/>
<defs>
  <clipPath id="clip322">
    <rect x="249" y="47" width="2104" height="1357"/>
  </clipPath>
</defs>
<polyline clip-path="url(#clip322)" style="stroke:#000000; stroke-linecap:round; stroke-linejoin:round; stroke-width:2; stroke-opacity:0.1; fill:none" points="306.496,1403.57 306.496,47.2441 "/>
<polyline clip-path="url(#clip322)" style="stroke:#000000; stroke-linecap:round; stroke-linejoin:round; stroke-width:2; stroke-opacity:0.1; fill:none" points="718.927,1403.57 718.927,47.2441 "/>
<polyline clip-path="url(#clip322)" style="stroke:#000000; stroke-linecap:round; stroke-linejoin:round; stroke-width:2; stroke-opacity:0.1; fill:none" points="1131.36,1403.57 1131.36,47.2441 "/>
<polyline clip-path="url(#clip322)" style="stroke:#000000; stroke-linecap:round; stroke-linejoin:round; stroke-width:2; stroke-opacity:0.1; fill:none" points="1543.79,1403.57 1543.79,47.2441 "/>
<polyline clip-path="url(#clip322)" style="stroke:#000000; stroke-linecap:round; stroke-linejoin:round; stroke-width:2; stroke-opacity:0.1; fill:none" points="1956.22,1403.57 1956.22,47.2441 "/>
<polyline clip-path="url(#clip322)" style="stroke:#000000; stroke-linecap:round; stroke-linejoin:round; stroke-width:2; stroke-opacity:0.1; fill:none" points="249.704,1309.55 2352.76,1309.55 "/>
<polyline clip-path="url(#clip322)" style="stroke:#000000; stroke-linecap:round; stroke-linejoin:round; stroke-width:2; stroke-opacity:0.1; fill:none" points="249.704,1031.38 2352.76,1031.38 "/>
<polyline clip-path="url(#clip322)" style="stroke:#000000; stroke-linecap:round; stroke-linejoin:round; stroke-width:2; stroke-opacity:0.1; fill:none" points="249.704,753.221 2352.76,753.221 "/>
<polyline clip-path="url(#clip322)" style="stroke:#000000; stroke-linecap:round; stroke-linejoin:round; stroke-width:2; stroke-opacity:0.1; fill:none" points="249.704,475.059 2352.76,475.059 "/>
<polyline clip-path="url(#clip322)" style="stroke:#000000; stroke-linecap:round; stroke-linejoin:round; stroke-width:2; stroke-opacity:0.1; fill:none" points="249.704,196.896 2352.76,196.896 "/>
<polyline clip-path="url(#clip320)" style="stroke:#000000; stroke-linecap:round; stroke-linejoin:round; stroke-width:4; stroke-opacity:1; fill:none" points="249.704,1403.57 2352.76,1403.57 "/>
<polyline clip-path="url(#clip320)" style="stroke:#000000; stroke-linecap:round; stroke-linejoin:round; stroke-width:4; stroke-opacity:1; fill:none" points="306.496,1403.57 306.496,1384.67 "/>
<polyline clip-path="url(#clip320)" style="stroke:#000000; stroke-linecap:round; stroke-linejoin:round; stroke-width:4; stroke-opacity:1; fill:none" points="718.927,1403.57 718.927,1384.67 "/>
<polyline clip-path="url(#clip320)" style="stroke:#000000; stroke-linecap:round; stroke-linejoin:round; stroke-width:4; stroke-opacity:1; fill:none" points="1131.36,1403.57 1131.36,1384.67 "/>
<polyline clip-path="url(#clip320)" style="stroke:#000000; stroke-linecap:round; stroke-linejoin:round; stroke-width:4; stroke-opacity:1; fill:none" points="1543.79,1403.57 1543.79,1384.67 "/>
<polyline clip-path="url(#clip320)" style="stroke:#000000; stroke-linecap:round; stroke-linejoin:round; stroke-width:4; stroke-opacity:1; fill:none" points="1956.22,1403.57 1956.22,1384.67 "/>
<path clip-path="url(#clip320)" d="M153.717 1477.69 L161.356 1477.69 L161.356 1451.33 L153.046 1452.99 L153.046 1448.73 L161.31 1447.07 L165.986 1447.07 L165.986 1477.69 L173.624 1477.69 L173.624 1481.63 L153.717 1481.63 L153.717 1477.69 Z" fill="#000000" fill-rule="nonzero" fill-opacity="1" /><path clip-path="url(#clip320)" d="M183.069 1475.75 L187.953 1475.75 L187.953 1481.63 L183.069 1481.63 L183.069 1475.75 Z" fill="#000000" fill-rule="nonzero" fill-opacity="1" /><path clip-path="url(#clip320)" d="M208.138 1450.14 Q204.527 1450.14 202.698 1453.71 Q200.893 1457.25 200.893 1464.38 Q200.893 1471.49 202.698 1475.05 Q204.527 1478.59 208.138 1478.59 Q211.772 1478.59 213.578 1475.05 Q215.407 1471.49 215.407 1464.38 Q215.407 1457.25 213.578 1453.71 Q211.772 1450.14 208.138 1450.14 M208.138 1446.44 Q213.948 1446.44 217.004 1451.05 Q220.082 1455.63 220.082 1464.38 Q220.082 1473.11 217.004 1477.71 Q213.948 1482.3 208.138 1482.3 Q202.328 1482.3 199.249 1477.71 Q196.194 1473.11 196.194 1464.38 Q196.194 1455.63 199.249 1451.05 Q202.328 1446.44 208.138 1446.44 Z" fill="#000000" fill-rule="nonzero" fill-opacity="1" /><path clip-path="url(#clip320)" d="M238.3 1450.14 Q234.689 1450.14 232.86 1453.71 Q231.055 1457.25 231.055 1464.38 Q231.055 1471.49 232.86 1475.05 Q234.689 1478.59 238.3 1478.59 Q241.934 1478.59 243.74 1475.05 Q245.568 1471.49 245.568 1464.38 Q245.568 1457.25 243.74 1453.71 Q241.934 1450.14 238.3 1450.14 M238.3 1446.44 Q244.11 1446.44 247.166 1451.05 Q250.244 1455.63 250.244 1464.38 Q250.244 1473.11 247.166 1477.71 Q244.11 1482.3 238.3 1482.3 Q232.49 1482.3 229.411 1477.71 Q226.356 1473.11 226.356 1464.38 Q226.356 1455.63 229.411 1451.05 Q232.49 1446.44 238.3 1446.44 Z" fill="#000000" fill-rule="nonzero" fill-opacity="1" /><path clip-path="url(#clip320)" d="M262.49 1477.69 L278.809 1477.69 L278.809 1481.63 L256.865 1481.63 L256.865 1477.69 Q259.527 1474.94 264.11 1470.31 Q268.716 1465.65 269.897 1464.31 Q272.142 1461.79 273.022 1460.05 Q273.925 1458.29 273.925 1456.6 Q273.925 1453.85 271.98 1452.11 Q270.059 1450.38 266.957 1450.38 Q264.758 1450.38 262.304 1451.14 Q259.874 1451.9 257.096 1453.45 L257.096 1448.73 Q259.92 1447.6 262.374 1447.02 Q264.828 1446.44 266.865 1446.44 Q272.235 1446.44 275.429 1449.13 Q278.624 1451.81 278.624 1456.3 Q278.624 1458.43 277.814 1460.35 Q277.027 1462.25 274.92 1464.84 Q274.341 1465.52 271.24 1468.73 Q268.138 1471.93 262.49 1477.69 Z" fill="#000000" fill-rule="nonzero" fill-opacity="1" /><path clip-path="url(#clip320)" d="M298.624 1450.14 Q295.013 1450.14 293.184 1453.71 Q291.378 1457.25 291.378 1464.38 Q291.378 1471.49 293.184 1475.05 Q295.013 1478.59 298.624 1478.59 Q302.258 1478.59 304.064 1475.05 Q305.892 1471.49 305.892 1464.38 Q305.892 1457.25 304.064 1453.71 Q302.258 1450.14 298.624 1450.14 M298.624 1446.44 Q304.434 1446.44 307.489 1451.05 Q310.568 1455.63 310.568 1464.38 Q310.568 1473.11 307.489 1477.71 Q304.434 1482.3 298.624 1482.3 Q292.814 1482.3 289.735 1477.71 Q286.679 1473.11 286.679 1464.38 Q286.679 1455.63 289.735 1451.05 Q292.814 1446.44 298.624 1446.44 Z" fill="#000000" fill-rule="nonzero" fill-opacity="1" /><path clip-path="url(#clip320)" d="M346.957 1456.16 L336.378 1466.79 L346.957 1477.37 L344.202 1480.17 L333.577 1469.54 L322.952 1480.17 L320.221 1477.37 L330.776 1466.79 L320.221 1456.16 L322.952 1453.36 L333.577 1463.99 L344.202 1453.36 L346.957 1456.16 Z" fill="#000000" fill-rule="nonzero" fill-opacity="1" /><path clip-path="url(#clip320)" d="M359.318 1477.69 L366.957 1477.69 L366.957 1451.33 L358.647 1452.99 L358.647 1448.73 L366.91 1447.07 L371.586 1447.07 L371.586 1477.69 L379.225 1477.69 L379.225 1481.63 L359.318 1481.63 L359.318 1477.69 Z" fill="#000000" fill-rule="nonzero" fill-opacity="1" /><path clip-path="url(#clip320)" d="M398.669 1450.14 Q395.058 1450.14 393.23 1453.71 Q391.424 1457.25 391.424 1464.38 Q391.424 1471.49 393.23 1475.05 Q395.058 1478.59 398.669 1478.59 Q402.304 1478.59 404.109 1475.05 Q405.938 1471.49 405.938 1464.38 Q405.938 1457.25 404.109 1453.71 Q402.304 1450.14 398.669 1450.14 M398.669 1446.44 Q404.48 1446.44 407.535 1451.05 Q410.614 1455.63 410.614 1464.38 Q410.614 1473.11 407.535 1477.71 Q404.48 1482.3 398.669 1482.3 Q392.859 1482.3 389.781 1477.71 Q386.725 1473.11 386.725 1464.38 Q386.725 1455.63 389.781 1451.05 Q392.859 1446.44 398.669 1446.44 Z" fill="#000000" fill-rule="nonzero" fill-opacity="1" /><path clip-path="url(#clip320)" d="M410.614 1440.54 L434.725 1440.54 L434.725 1443.74 L410.614 1443.74 L410.614 1440.54 Z" fill="#000000" fill-rule="nonzero" fill-opacity="1" /><path clip-path="url(#clip320)" d="M442.963 1426.14 L457.878 1426.14 L457.878 1429.33 L446.443 1429.33 L446.443 1436.22 Q447.27 1435.93 448.098 1435.8 Q448.925 1435.65 449.753 1435.65 Q454.455 1435.65 457.201 1438.23 Q459.947 1440.81 459.947 1445.21 Q459.947 1449.74 457.125 1452.26 Q454.304 1454.76 449.17 1454.76 Q447.402 1454.76 445.559 1454.46 Q443.734 1454.16 441.778 1453.56 L441.778 1449.74 Q443.471 1450.66 445.277 1451.11 Q447.082 1451.56 449.095 1451.56 Q452.348 1451.56 454.248 1449.85 Q456.147 1448.14 456.147 1445.21 Q456.147 1442.27 454.248 1440.56 Q452.348 1438.85 449.095 1438.85 Q447.571 1438.85 446.048 1439.19 Q444.543 1439.53 442.963 1440.24 L442.963 1426.14 Z" fill="#000000" fill-rule="nonzero" fill-opacity="1" /><path clip-path="url(#clip320)" d="M566.148 1477.69 L573.787 1477.69 L573.787 1451.33 L565.477 1452.99 L565.477 1448.73 L573.741 1447.07 L578.416 1447.07 L578.416 1477.69 L586.055 1477.69 L586.055 1481.63 L566.148 1481.63 L566.148 1477.69 Z" fill="#000000" fill-rule="nonzero" fill-opacity="1" /><path clip-path="url(#clip320)" d="M595.5 1475.75 L600.384 1475.75 L600.384 1481.63 L595.5 1481.63 L595.5 1475.75 Z" fill="#000000" fill-rule="nonzero" fill-opacity="1" /><path clip-path="url(#clip320)" d="M620.569 1450.14 Q616.958 1450.14 615.129 1453.71 Q613.324 1457.25 613.324 1464.38 Q613.324 1471.49 615.129 1475.05 Q616.958 1478.59 620.569 1478.59 Q624.203 1478.59 626.009 1475.05 Q627.837 1471.49 627.837 1464.38 Q627.837 1457.25 626.009 1453.71 Q624.203 1450.14 620.569 1450.14 M620.569 1446.44 Q626.379 1446.44 629.435 1451.05 Q632.513 1455.63 632.513 1464.38 Q632.513 1473.11 629.435 1477.71 Q626.379 1482.3 620.569 1482.3 Q614.759 1482.3 611.68 1477.71 Q608.625 1473.11 608.625 1464.38 Q608.625 1455.63 611.68 1451.05 Q614.759 1446.44 620.569 1446.44 Z" fill="#000000" fill-rule="nonzero" fill-opacity="1" /><path clip-path="url(#clip320)" d="M650.731 1450.14 Q647.12 1450.14 645.291 1453.71 Q643.486 1457.25 643.486 1464.38 Q643.486 1471.49 645.291 1475.05 Q647.12 1478.59 650.731 1478.59 Q654.365 1478.59 656.171 1475.05 Q657.999 1471.49 657.999 1464.38 Q657.999 1457.25 656.171 1453.71 Q654.365 1450.14 650.731 1450.14 M650.731 1446.44 Q656.541 1446.44 659.597 1451.05 Q662.675 1455.63 662.675 1464.38 Q662.675 1473.11 659.597 1477.71 Q656.541 1482.3 650.731 1482.3 Q644.921 1482.3 641.842 1477.71 Q638.786 1473.11 638.786 1464.38 Q638.786 1455.63 641.842 1451.05 Q644.921 1446.44 650.731 1446.44 Z" fill="#000000" fill-rule="nonzero" fill-opacity="1" /><path clip-path="url(#clip320)" d="M670.939 1447.07 L689.295 1447.07 L689.295 1451 L675.221 1451 L675.221 1459.47 Q676.24 1459.13 677.258 1458.96 Q678.277 1458.78 679.296 1458.78 Q685.083 1458.78 688.462 1461.95 Q691.842 1465.12 691.842 1470.54 Q691.842 1476.12 688.37 1479.22 Q684.897 1482.3 678.578 1482.3 Q676.402 1482.3 674.133 1481.93 Q671.888 1481.56 669.481 1480.82 L669.481 1476.12 Q671.564 1477.25 673.786 1477.81 Q676.008 1478.36 678.485 1478.36 Q682.49 1478.36 684.828 1476.26 Q687.166 1474.15 687.166 1470.54 Q687.166 1466.93 684.828 1464.82 Q682.49 1462.71 678.485 1462.71 Q676.61 1462.71 674.735 1463.13 Q672.884 1463.55 670.939 1464.43 L670.939 1447.07 Z" fill="#000000" fill-rule="nonzero" fill-opacity="1" /><path clip-path="url(#clip320)" d="M711.055 1450.14 Q707.444 1450.14 705.615 1453.71 Q703.809 1457.25 703.809 1464.38 Q703.809 1471.49 705.615 1475.05 Q707.444 1478.59 711.055 1478.59 Q714.689 1478.59 716.494 1475.05 Q718.323 1471.49 718.323 1464.38 Q718.323 1457.25 716.494 1453.71 Q714.689 1450.14 711.055 1450.14 M711.055 1446.44 Q716.865 1446.44 719.92 1451.05 Q722.999 1455.63 722.999 1464.38 Q722.999 1473.11 719.92 1477.71 Q716.865 1482.3 711.055 1482.3 Q705.244 1482.3 702.166 1477.71 Q699.11 1473.11 699.11 1464.38 Q699.11 1455.63 702.166 1451.05 Q705.244 1446.44 711.055 1446.44 Z" fill="#000000" fill-rule="nonzero" fill-opacity="1" /><path clip-path="url(#clip320)" d="M759.388 1456.16 L748.809 1466.79 L759.388 1477.37 L756.633 1480.17 L746.008 1469.54 L735.383 1480.17 L732.652 1477.37 L743.207 1466.79 L732.652 1456.16 L735.383 1453.36 L746.008 1463.99 L756.633 1453.36 L759.388 1456.16 Z" fill="#000000" fill-rule="nonzero" fill-opacity="1" /><path clip-path="url(#clip320)" d="M771.749 1477.69 L779.388 1477.69 L779.388 1451.33 L771.077 1452.99 L771.077 1448.73 L779.341 1447.07 L784.017 1447.07 L784.017 1477.69 L791.656 1477.69 L791.656 1481.63 L771.749 1481.63 L771.749 1477.69 Z" fill="#000000" fill-rule="nonzero" fill-opacity="1" /><path clip-path="url(#clip320)" d="M811.1 1450.14 Q807.489 1450.14 805.661 1453.71 Q803.855 1457.25 803.855 1464.38 Q803.855 1471.49 805.661 1475.05 Q807.489 1478.59 811.1 1478.59 Q814.735 1478.59 816.54 1475.05 Q818.369 1471.49 818.369 1464.38 Q818.369 1457.25 816.54 1453.71 Q814.735 1450.14 811.1 1450.14 M811.1 1446.44 Q816.911 1446.44 819.966 1451.05 Q823.045 1455.63 823.045 1464.38 Q823.045 1473.11 819.966 1477.71 Q816.911 1482.3 811.1 1482.3 Q805.29 1482.3 802.212 1477.71 Q799.156 1473.11 799.156 1464.38 Q799.156 1455.63 802.212 1451.05 Q805.29 1446.44 811.1 1446.44 Z" fill="#000000" fill-rule="nonzero" fill-opacity="1" /><path clip-path="url(#clip320)" d="M823.045 1440.54 L847.156 1440.54 L847.156 1443.74 L823.045 1443.74 L823.045 1440.54 Z" fill="#000000" fill-rule="nonzero" fill-opacity="1" /><path clip-path="url(#clip320)" d="M855.394 1426.14 L870.309 1426.14 L870.309 1429.33 L858.874 1429.33 L858.874 1436.22 Q859.701 1435.93 860.529 1435.8 Q861.356 1435.65 862.184 1435.65 Q866.886 1435.65 869.632 1438.23 Q872.378 1440.81 872.378 1445.21 Q872.378 1449.74 869.556 1452.26 Q866.735 1454.76 861.601 1454.76 Q859.833 1454.76 857.99 1454.46 Q856.165 1454.16 854.209 1453.56 L854.209 1449.74 Q855.902 1450.66 857.707 1451.11 Q859.513 1451.56 861.525 1451.56 Q864.779 1451.56 866.679 1449.85 Q868.578 1448.14 868.578 1445.21 Q868.578 1442.27 866.679 1440.56 Q864.779 1438.85 861.525 1438.85 Q860.002 1438.85 858.479 1439.19 Q856.974 1439.53 855.394 1440.24 L855.394 1426.14 Z" fill="#000000" fill-rule="nonzero" fill-opacity="1" /><path clip-path="url(#clip320)" d="M978.579 1477.69 L986.218 1477.69 L986.218 1451.33 L977.908 1452.99 L977.908 1448.73 L986.171 1447.07 L990.847 1447.07 L990.847 1477.69 L998.486 1477.69 L998.486 1481.63 L978.579 1481.63 L978.579 1477.69 Z" fill="#000000" fill-rule="nonzero" fill-opacity="1" /><path clip-path="url(#clip320)" d="M1007.93 1475.75 L1012.81 1475.75 L1012.81 1481.63 L1007.93 1481.63 L1007.93 1475.75 Z" fill="#000000" fill-rule="nonzero" fill-opacity="1" /><path clip-path="url(#clip320)" d="M1033 1450.14 Q1029.39 1450.14 1027.56 1453.71 Q1025.75 1457.25 1025.75 1464.38 Q1025.75 1471.49 1027.56 1475.05 Q1029.39 1478.59 1033 1478.59 Q1036.63 1478.59 1038.44 1475.05 Q1040.27 1471.49 1040.27 1464.38 Q1040.27 1457.25 1038.44 1453.71 Q1036.63 1450.14 1033 1450.14 M1033 1446.44 Q1038.81 1446.44 1041.87 1451.05 Q1044.94 1455.63 1044.94 1464.38 Q1044.94 1473.11 1041.87 1477.71 Q1038.81 1482.3 1033 1482.3 Q1027.19 1482.3 1024.11 1477.71 Q1021.06 1473.11 1021.06 1464.38 Q1021.06 1455.63 1024.11 1451.05 Q1027.19 1446.44 1033 1446.44 Z" fill="#000000" fill-rule="nonzero" fill-opacity="1" /><path clip-path="url(#clip320)" d="M1063.16 1450.14 Q1059.55 1450.14 1057.72 1453.71 Q1055.92 1457.25 1055.92 1464.38 Q1055.92 1471.49 1057.72 1475.05 Q1059.55 1478.59 1063.16 1478.59 Q1066.8 1478.59 1068.6 1475.05 Q1070.43 1471.49 1070.43 1464.38 Q1070.43 1457.25 1068.6 1453.71 Q1066.8 1450.14 1063.16 1450.14 M1063.16 1446.44 Q1068.97 1446.44 1072.03 1451.05 Q1075.11 1455.63 1075.11 1464.38 Q1075.11 1473.11 1072.03 1477.71 Q1068.97 1482.3 1063.16 1482.3 Q1057.35 1482.3 1054.27 1477.71 Q1051.22 1473.11 1051.22 1464.38 Q1051.22 1455.63 1054.27 1451.05 Q1057.35 1446.44 1063.16 1446.44 Z" fill="#000000" fill-rule="nonzero" fill-opacity="1" /><path clip-path="url(#clip320)" d="M1093.32 1465.21 Q1089.99 1465.21 1088.07 1467 Q1086.17 1468.78 1086.17 1471.9 Q1086.17 1475.03 1088.07 1476.81 Q1089.99 1478.59 1093.32 1478.59 Q1096.66 1478.59 1098.58 1476.81 Q1100.5 1475.01 1100.5 1471.9 Q1100.5 1468.78 1098.58 1467 Q1096.68 1465.21 1093.32 1465.21 M1088.65 1463.22 Q1085.64 1462.48 1083.95 1460.42 Q1082.28 1458.36 1082.28 1455.4 Q1082.28 1451.26 1085.22 1448.85 Q1088.18 1446.44 1093.32 1446.44 Q1098.49 1446.44 1101.43 1448.85 Q1104.37 1451.26 1104.37 1455.4 Q1104.37 1458.36 1102.68 1460.42 Q1101.01 1462.48 1098.02 1463.22 Q1101.4 1464.01 1103.28 1466.3 Q1105.18 1468.59 1105.18 1471.9 Q1105.18 1476.93 1102.1 1479.61 Q1099.04 1482.3 1093.32 1482.3 Q1087.61 1482.3 1084.53 1479.61 Q1081.47 1476.93 1081.47 1471.9 Q1081.47 1468.59 1083.37 1466.3 Q1085.27 1464.01 1088.65 1463.22 M1086.93 1455.84 Q1086.93 1458.52 1088.6 1460.03 Q1090.29 1461.53 1093.32 1461.53 Q1096.33 1461.53 1098.02 1460.03 Q1099.74 1458.52 1099.74 1455.84 Q1099.74 1453.15 1098.02 1451.65 Q1096.33 1450.14 1093.32 1450.14 Q1090.29 1450.14 1088.6 1451.65 Q1086.93 1453.15 1086.93 1455.84 Z" fill="#000000" fill-rule="nonzero" fill-opacity="1" /><path clip-path="url(#clip320)" d="M1123.49 1450.14 Q1119.87 1450.14 1118.05 1453.71 Q1116.24 1457.25 1116.24 1464.38 Q1116.24 1471.49 1118.05 1475.05 Q1119.87 1478.59 1123.49 1478.59 Q1127.12 1478.59 1128.93 1475.05 Q1130.75 1471.49 1130.75 1464.38 Q1130.75 1457.25 1128.93 1453.71 Q1127.12 1450.14 1123.49 1450.14 M1123.49 1446.44 Q1129.3 1446.44 1132.35 1451.05 Q1135.43 1455.63 1135.43 1464.38 Q1135.43 1473.11 1132.35 1477.71 Q1129.3 1482.3 1123.49 1482.3 Q1117.68 1482.3 1114.6 1477.71 Q1111.54 1473.11 1111.54 1464.38 Q1111.54 1455.63 1114.6 1451.05 Q1117.68 1446.44 1123.49 1446.44 Z" fill="#000000" fill-rule="nonzero" fill-opacity="1" /><path clip-path="url(#clip320)" d="M1171.82 1456.16 L1161.24 1466.79 L1171.82 1477.37 L1169.06 1480.17 L1158.44 1469.54 L1147.81 1480.17 L1145.08 1477.37 L1155.64 1466.79 L1145.08 1456.16 L1147.81 1453.36 L1158.44 1463.99 L1169.06 1453.36 L1171.82 1456.16 Z" fill="#000000" fill-rule="nonzero" fill-opacity="1" /><path clip-path="url(#clip320)" d="M1184.18 1477.69 L1191.82 1477.69 L1191.82 1451.33 L1183.51 1452.99 L1183.51 1448.73 L1191.77 1447.07 L1196.45 1447.07 L1196.45 1477.69 L1204.09 1477.69 L1204.09 1481.63 L1184.18 1481.63 L1184.18 1477.69 Z" fill="#000000" fill-rule="nonzero" fill-opacity="1" /><path clip-path="url(#clip320)" d="M1223.53 1450.14 Q1219.92 1450.14 1218.09 1453.71 Q1216.29 1457.25 1216.29 1464.38 Q1216.29 1471.49 1218.09 1475.05 Q1219.92 1478.59 1223.53 1478.59 Q1227.17 1478.59 1228.97 1475.05 Q1230.8 1471.49 1230.8 1464.38 Q1230.8 1457.25 1228.97 1453.71 Q1227.17 1450.14 1223.53 1450.14 M1223.53 1446.44 Q1229.34 1446.44 1232.4 1451.05 Q1235.48 1455.63 1235.48 1464.38 Q1235.48 1473.11 1232.4 1477.71 Q1229.34 1482.3 1223.53 1482.3 Q1217.72 1482.3 1214.64 1477.71 Q1211.59 1473.11 1211.59 1464.38 Q1211.59 1455.63 1214.64 1451.05 Q1217.72 1446.44 1223.53 1446.44 Z" fill="#000000" fill-rule="nonzero" fill-opacity="1" /><path clip-path="url(#clip320)" d="M1235.48 1440.54 L1259.59 1440.54 L1259.59 1443.74 L1235.48 1443.74 L1235.48 1440.54 Z" fill="#000000" fill-rule="nonzero" fill-opacity="1" /><path clip-path="url(#clip320)" d="M1267.82 1426.14 L1282.74 1426.14 L1282.74 1429.33 L1271.3 1429.33 L1271.3 1436.22 Q1272.13 1435.93 1272.96 1435.8 Q1273.79 1435.65 1274.61 1435.65 Q1279.32 1435.65 1282.06 1438.23 Q1284.81 1440.81 1284.81 1445.21 Q1284.81 1449.74 1281.99 1452.26 Q1279.17 1454.76 1274.03 1454.76 Q1272.26 1454.76 1270.42 1454.46 Q1268.6 1454.16 1266.64 1453.56 L1266.64 1449.74 Q1268.33 1450.66 1270.14 1451.11 Q1271.94 1451.56 1273.96 1451.56 Q1277.21 1451.56 1279.11 1449.85 Q1281.01 1448.14 1281.01 1445.21 Q1281.01 1442.27 1279.11 1440.56 Q1277.21 1438.85 1273.96 1438.85 Q1272.43 1438.85 1270.91 1439.19 Q1269.4 1439.53 1267.82 1440.24 L1267.82 1426.14 Z" fill="#000000" fill-rule="nonzero" fill-opacity="1" /><path clip-path="url(#clip320)" d="M1391.01 1477.69 L1398.65 1477.69 L1398.65 1451.33 L1390.34 1452.99 L1390.34 1448.73 L1398.6 1447.07 L1403.28 1447.07 L1403.28 1477.69 L1410.92 1477.69 L1410.92 1481.63 L1391.01 1481.63 L1391.01 1477.69 Z" fill="#000000" fill-rule="nonzero" fill-opacity="1" /><path clip-path="url(#clip320)" d="M1420.36 1475.75 L1425.25 1475.75 L1425.25 1481.63 L1420.36 1481.63 L1420.36 1475.75 Z" fill="#000000" fill-rule="nonzero" fill-opacity="1" /><path clip-path="url(#clip320)" d="M1445.43 1450.14 Q1441.82 1450.14 1439.99 1453.71 Q1438.19 1457.25 1438.19 1464.38 Q1438.19 1471.49 1439.99 1475.05 Q1441.82 1478.59 1445.43 1478.59 Q1449.06 1478.59 1450.87 1475.05 Q1452.7 1471.49 1452.7 1464.38 Q1452.7 1457.25 1450.87 1453.71 Q1449.06 1450.14 1445.43 1450.14 M1445.43 1446.44 Q1451.24 1446.44 1454.3 1451.05 Q1457.38 1455.63 1457.38 1464.38 Q1457.38 1473.11 1454.3 1477.71 Q1451.24 1482.3 1445.43 1482.3 Q1439.62 1482.3 1436.54 1477.71 Q1433.49 1473.11 1433.49 1464.38 Q1433.49 1455.63 1436.54 1451.05 Q1439.62 1446.44 1445.43 1446.44 Z" fill="#000000" fill-rule="nonzero" fill-opacity="1" /><path clip-path="url(#clip320)" d="M1466.4 1477.69 L1474.04 1477.69 L1474.04 1451.33 L1465.73 1452.99 L1465.73 1448.73 L1474 1447.07 L1478.67 1447.07 L1478.67 1477.69 L1486.31 1477.69 L1486.31 1481.63 L1466.4 1481.63 L1466.4 1477.69 Z" fill="#000000" fill-rule="nonzero" fill-opacity="1" /><path clip-path="url(#clip320)" d="M1496.56 1477.69 L1504.2 1477.69 L1504.2 1451.33 L1495.89 1452.99 L1495.89 1448.73 L1504.16 1447.07 L1508.83 1447.07 L1508.83 1477.69 L1516.47 1477.69 L1516.47 1481.63 L1496.56 1481.63 L1496.56 1477.69 Z" fill="#000000" fill-rule="nonzero" fill-opacity="1" /><path clip-path="url(#clip320)" d="M1535.92 1450.14 Q1532.31 1450.14 1530.48 1453.71 Q1528.67 1457.25 1528.67 1464.38 Q1528.67 1471.49 1530.48 1475.05 Q1532.31 1478.59 1535.92 1478.59 Q1539.55 1478.59 1541.36 1475.05 Q1543.18 1471.49 1543.18 1464.38 Q1543.18 1457.25 1541.36 1453.71 Q1539.55 1450.14 1535.92 1450.14 M1535.92 1446.44 Q1541.73 1446.44 1544.78 1451.05 Q1547.86 1455.63 1547.86 1464.38 Q1547.86 1473.11 1544.78 1477.71 Q1541.73 1482.3 1535.92 1482.3 Q1530.11 1482.3 1527.03 1477.71 Q1523.97 1473.11 1523.97 1464.38 Q1523.97 1455.63 1527.03 1451.05 Q1530.11 1446.44 1535.92 1446.44 Z" fill="#000000" fill-rule="nonzero" fill-opacity="1" /><path clip-path="url(#clip320)" d="M1584.25 1456.16 L1573.67 1466.79 L1584.25 1477.37 L1581.49 1480.17 L1570.87 1469.54 L1560.24 1480.17 L1557.51 1477.37 L1568.07 1466.79 L1557.51 1456.16 L1560.24 1453.36 L1570.87 1463.99 L1581.49 1453.36 L1584.25 1456.16 Z" fill="#000000" fill-rule="nonzero" fill-opacity="1" /><path clip-path="url(#clip320)" d="M1596.61 1477.69 L1604.25 1477.69 L1604.25 1451.33 L1595.94 1452.99 L1595.94 1448.73 L1604.2 1447.07 L1608.88 1447.07 L1608.88 1477.69 L1616.52 1477.69 L1616.52 1481.63 L1596.61 1481.63 L1596.61 1477.69 Z" fill="#000000" fill-rule="nonzero" fill-opacity="1" /><path clip-path="url(#clip320)" d="M1635.96 1450.14 Q1632.35 1450.14 1630.52 1453.71 Q1628.72 1457.25 1628.72 1464.38 Q1628.72 1471.49 1630.52 1475.05 Q1632.35 1478.59 1635.96 1478.59 Q1639.6 1478.59 1641.4 1475.05 Q1643.23 1471.49 1643.23 1464.38 Q1643.23 1457.25 1641.4 1453.71 Q1639.6 1450.14 1635.96 1450.14 M1635.96 1446.44 Q1641.77 1446.44 1644.83 1451.05 Q1647.91 1455.63 1647.91 1464.38 Q1647.91 1473.11 1644.83 1477.71 Q1641.77 1482.3 1635.96 1482.3 Q1630.15 1482.3 1627.07 1477.71 Q1624.02 1473.11 1624.02 1464.38 Q1624.02 1455.63 1627.07 1451.05 Q1630.15 1446.44 1635.96 1446.44 Z" fill="#000000" fill-rule="nonzero" fill-opacity="1" /><path clip-path="url(#clip320)" d="M1647.91 1440.54 L1672.02 1440.54 L1672.02 1443.74 L1647.91 1443.74 L1647.91 1440.54 Z" fill="#000000" fill-rule="nonzero" fill-opacity="1" /><path clip-path="url(#clip320)" d="M1680.26 1426.14 L1695.17 1426.14 L1695.17 1429.33 L1683.74 1429.33 L1683.74 1436.22 Q1684.56 1435.93 1685.39 1435.8 Q1686.22 1435.65 1687.05 1435.65 Q1691.75 1435.65 1694.49 1438.23 Q1697.24 1440.81 1697.24 1445.21 Q1697.24 1449.74 1694.42 1452.26 Q1691.6 1454.76 1686.46 1454.76 Q1684.69 1454.76 1682.85 1454.46 Q1681.03 1454.16 1679.07 1453.56 L1679.07 1449.74 Q1680.76 1450.66 1682.57 1451.11 Q1684.37 1451.56 1686.39 1451.56 Q1689.64 1451.56 1691.54 1449.85 Q1693.44 1448.14 1693.44 1445.21 Q1693.44 1442.27 1691.54 1440.56 Q1689.64 1438.85 1686.39 1438.85 Q1684.86 1438.85 1683.34 1439.19 Q1681.84 1439.53 1680.26 1440.24 L1680.26 1426.14 Z" fill="#000000" fill-rule="nonzero" fill-opacity="1" /><path clip-path="url(#clip320)" d="M1803.44 1477.69 L1811.08 1477.69 L1811.08 1451.33 L1802.77 1452.99 L1802.77 1448.73 L1811.03 1447.07 L1815.71 1447.07 L1815.71 1477.69 L1823.35 1477.69 L1823.35 1481.63 L1803.44 1481.63 L1803.44 1477.69 Z" fill="#000000" fill-rule="nonzero" fill-opacity="1" /><path clip-path="url(#clip320)" d="M1832.79 1475.75 L1837.68 1475.75 L1837.68 1481.63 L1832.79 1481.63 L1832.79 1475.75 Z" fill="#000000" fill-rule="nonzero" fill-opacity="1" /><path clip-path="url(#clip320)" d="M1857.86 1450.14 Q1854.25 1450.14 1852.42 1453.71 Q1850.62 1457.25 1850.62 1464.38 Q1850.62 1471.49 1852.42 1475.05 Q1854.25 1478.59 1857.86 1478.59 Q1861.5 1478.59 1863.3 1475.05 Q1865.13 1471.49 1865.13 1464.38 Q1865.13 1457.25 1863.3 1453.71 Q1861.5 1450.14 1857.86 1450.14 M1857.86 1446.44 Q1863.67 1446.44 1866.73 1451.05 Q1869.81 1455.63 1869.81 1464.38 Q1869.81 1473.11 1866.73 1477.71 Q1863.67 1482.3 1857.86 1482.3 Q1852.05 1482.3 1848.97 1477.71 Q1845.92 1473.11 1845.92 1464.38 Q1845.92 1455.63 1848.97 1451.05 Q1852.05 1446.44 1857.86 1446.44 Z" fill="#000000" fill-rule="nonzero" fill-opacity="1" /><path clip-path="url(#clip320)" d="M1878.83 1477.69 L1886.47 1477.69 L1886.47 1451.33 L1878.16 1452.99 L1878.16 1448.73 L1886.43 1447.07 L1891.1 1447.07 L1891.1 1477.69 L1898.74 1477.69 L1898.74 1481.63 L1878.83 1481.63 L1878.83 1477.69 Z" fill="#000000" fill-rule="nonzero" fill-opacity="1" /><path clip-path="url(#clip320)" d="M1921.03 1451.14 L1909.23 1469.59 L1921.03 1469.59 L1921.03 1451.14 M1919.81 1447.07 L1925.69 1447.07 L1925.69 1469.59 L1930.62 1469.59 L1930.62 1473.48 L1925.69 1473.48 L1925.69 1481.63 L1921.03 1481.63 L1921.03 1473.48 L1905.43 1473.48 L1905.43 1468.96 L1919.81 1447.07 Z" fill="#000000" fill-rule="nonzero" fill-opacity="1" /><path clip-path="url(#clip320)" d="M1948.35 1450.14 Q1944.74 1450.14 1942.91 1453.71 Q1941.1 1457.25 1941.1 1464.38 Q1941.1 1471.49 1942.91 1475.05 Q1944.74 1478.59 1948.35 1478.59 Q1951.98 1478.59 1953.79 1475.05 Q1955.62 1471.49 1955.62 1464.38 Q1955.62 1457.25 1953.79 1453.71 Q1951.98 1450.14 1948.35 1450.14 M1948.35 1446.44 Q1954.16 1446.44 1957.21 1451.05 Q1960.29 1455.63 1960.29 1464.38 Q1960.29 1473.11 1957.21 1477.71 Q1954.16 1482.3 1948.35 1482.3 Q1942.54 1482.3 1939.46 1477.71 Q1936.4 1473.11 1936.4 1464.38 Q1936.4 1455.63 1939.46 1451.05 Q1942.54 1446.44 1948.35 1446.44 Z" fill="#000000" fill-rule="nonzero" fill-opacity="1" /><path clip-path="url(#clip320)" d="M1996.68 1456.16 L1986.1 1466.79 L1996.68 1477.37 L1993.93 1480.17 L1983.3 1469.54 L1972.68 1480.17 L1969.94 1477.37 L1980.5 1466.79 L1969.94 1456.16 L1972.68 1453.36 L1983.3 1463.99 L1993.93 1453.36 L1996.68 1456.16 Z" fill="#000000" fill-rule="nonzero" fill-opacity="1" /><path clip-path="url(#clip320)" d="M2009.04 1477.69 L2016.68 1477.69 L2016.68 1451.33 L2008.37 1452.99 L2008.37 1448.73 L2016.63 1447.07 L2021.31 1447.07 L2021.31 1477.69 L2028.95 1477.69 L2028.95 1481.63 L2009.04 1481.63 L2009.04 1477.69 Z" fill="#000000" fill-rule="nonzero" fill-opacity="1" /><path clip-path="url(#clip320)" d="M2048.39 1450.14 Q2044.78 1450.14 2042.95 1453.71 Q2041.15 1457.25 2041.15 1464.38 Q2041.15 1471.49 2042.95 1475.05 Q2044.78 1478.59 2048.39 1478.59 Q2052.03 1478.59 2053.83 1475.05 Q2055.66 1471.49 2055.66 1464.38 Q2055.66 1457.25 2053.83 1453.71 Q2052.03 1450.14 2048.39 1450.14 M2048.39 1446.44 Q2054.2 1446.44 2057.26 1451.05 Q2060.34 1455.63 2060.34 1464.38 Q2060.34 1473.11 2057.26 1477.71 Q2054.2 1482.3 2048.39 1482.3 Q2042.58 1482.3 2039.5 1477.71 Q2036.45 1473.11 2036.45 1464.38 Q2036.45 1455.63 2039.5 1451.05 Q2042.58 1446.44 2048.39 1446.44 Z" fill="#000000" fill-rule="nonzero" fill-opacity="1" /><path clip-path="url(#clip320)" d="M2060.34 1440.54 L2084.45 1440.54 L2084.45 1443.74 L2060.34 1443.74 L2060.34 1440.54 Z" fill="#000000" fill-rule="nonzero" fill-opacity="1" /><path clip-path="url(#clip320)" d="M2092.69 1426.14 L2107.6 1426.14 L2107.6 1429.33 L2096.17 1429.33 L2096.17 1436.22 Q2096.99 1435.93 2097.82 1435.8 Q2098.65 1435.65 2099.48 1435.65 Q2104.18 1435.65 2106.92 1438.23 Q2109.67 1440.81 2109.67 1445.21 Q2109.67 1449.74 2106.85 1452.26 Q2104.03 1454.76 2098.89 1454.76 Q2097.13 1454.76 2095.28 1454.46 Q2093.46 1454.16 2091.5 1453.56 L2091.5 1449.74 Q2093.19 1450.66 2095 1451.11 Q2096.81 1451.56 2098.82 1451.56 Q2102.07 1451.56 2103.97 1449.85 Q2105.87 1448.14 2105.87 1445.21 Q2105.87 1442.27 2103.97 1440.56 Q2102.07 1438.85 2098.82 1438.85 Q2097.29 1438.85 2095.77 1439.19 Q2094.27 1439.53 2092.69 1440.24 L2092.69 1426.14 Z" fill="#000000" fill-rule="nonzero" fill-opacity="1" /><path clip-path="url(#clip320)" d="M1181.51 1532.45 Q1181.51 1536.05 1178.84 1539.37 Q1176.2 1542.69 1171.88 1544.72 Q1167.6 1546.71 1162.99 1546.71 L1151.78 1546.71 L1147.69 1563.2 Q1147.66 1563.3 1147.56 1563.72 Q1147.47 1564.1 1147.47 1564.33 Q1147.47 1565.14 1148.47 1565.33 Q1149.5 1565.52 1151.78 1565.52 Q1153.26 1565.52 1153.49 1565.78 Q1153.62 1565.94 1153.62 1566.23 Q1153.62 1566.68 1153.49 1567 Q1153.36 1567.29 1153.1 1567.39 Q1152.88 1567.49 1152.72 1567.52 Q1152.56 1567.55 1152.3 1567.55 Q1151.62 1567.55 1150.17 1567.49 Q1148.76 1567.42 1148.01 1567.42 L1143.8 1567.36 L1135.42 1567.55 Q1134.42 1567.55 1134.42 1566.75 Q1134.42 1566.13 1134.68 1565.88 Q1134.94 1565.59 1135.23 1565.55 Q1135.52 1565.52 1136.26 1565.52 Q1137.87 1565.52 1138.84 1565.43 Q1139.8 1565.33 1140.41 1565.2 Q1141.06 1565.04 1141.38 1564.59 Q1141.73 1564.14 1141.9 1563.75 Q1142.06 1563.33 1142.28 1562.4 L1151.11 1526.97 Q1151.36 1525.91 1151.36 1525.75 Q1151.36 1525.2 1151.04 1525.01 Q1150.75 1524.78 1149.92 1524.68 Q1148.3 1524.56 1147.08 1524.56 Q1146.28 1524.56 1145.95 1524.52 Q1145.66 1524.49 1145.41 1524.33 Q1145.18 1524.14 1145.18 1523.75 Q1145.18 1523.14 1145.44 1522.88 Q1145.73 1522.59 1146.05 1522.56 Q1146.37 1522.49 1147.15 1522.49 L1168.53 1522.49 Q1174.68 1522.49 1178.1 1525.43 Q1181.51 1528.36 1181.51 1532.45 M1175.39 1530.87 Q1175.39 1524.56 1166.4 1524.56 L1160.09 1524.56 Q1158 1524.56 1157.48 1524.94 Q1156.97 1525.3 1156.52 1527.07 L1152.04 1545.01 L1161.35 1545.01 Q1167.6 1545.01 1171.49 1541.5 Q1173.26 1539.89 1174.33 1536.54 Q1175.39 1533.19 1175.39 1530.87 Z" fill="#000000" fill-rule="nonzero" fill-opacity="1" /><path clip-path="url(#clip320)" d="M1218.57 1519.87 Q1218.84 1520.14 1218.84 1520.52 Q1218.84 1520.9 1218.57 1521.18 Q1218.3 1521.45 1217.91 1521.45 L1189.01 1521.45 Q1188.63 1521.45 1188.36 1521.18 Q1188.09 1520.9 1188.09 1520.52 Q1188.09 1520.14 1188.36 1519.87 Q1188.63 1519.6 1189.01 1519.6 L1217.91 1519.6 Q1218.3 1519.6 1218.57 1519.87 Z" fill="#000000" fill-rule="nonzero" fill-opacity="1" /><path clip-path="url(#clip320)" d="M1223.66 1505.71 L1223.66 1504.27 Q1229.2 1504.27 1232.07 1501.31 Q1232.86 1501.31 1232.99 1501.49 Q1233.13 1501.67 1233.13 1502.51 L1233.13 1528.41 Q1233.13 1529.79 1233.8 1530.22 Q1234.48 1530.64 1237.43 1530.64 L1238.9 1530.64 L1238.9 1532.06 Q1237.28 1531.93 1231.41 1531.93 Q1225.55 1531.93 1223.95 1532.06 L1223.95 1530.64 L1225.42 1530.64 Q1228.33 1530.64 1229.02 1530.24 Q1229.72 1529.81 1229.72 1528.41 L1229.72 1504.49 Q1227.31 1505.71 1223.66 1505.71 Z" fill="#000000" fill-rule="nonzero" fill-opacity="1" /><path clip-path="url(#clip320)" d="M1270.99 1551.06 Q1270.99 1539.92 1275.15 1530.93 Q1276.92 1527.16 1279.4 1524.01 Q1281.88 1520.85 1283.52 1519.47 Q1285.17 1518.08 1285.62 1518.08 Q1286.26 1518.08 1286.29 1518.73 Q1286.29 1519.05 1285.42 1519.85 Q1274.8 1530.68 1274.83 1551.06 Q1274.83 1571.51 1285.17 1581.91 Q1286.29 1583.04 1286.29 1583.4 Q1286.29 1584.04 1285.62 1584.04 Q1285.17 1584.04 1283.59 1582.72 Q1282.01 1581.4 1279.56 1578.37 Q1277.11 1575.34 1275.34 1571.64 Q1270.99 1562.66 1270.99 1551.06 Z" fill="#000000" fill-rule="nonzero" fill-opacity="1" /><path clip-path="url(#clip320)" d="M1296.32 1567.55 L1296.32 1565.52 L1297.9 1565.52 Q1301.48 1565.52 1302.28 1564.94 Q1303.12 1564.33 1303.12 1562.4 L1303.12 1527.65 Q1303.12 1525.75 1302.28 1525.17 Q1301.44 1524.56 1297.9 1524.56 L1296.32 1524.56 L1296.32 1522.49 L1319.61 1522.49 Q1326.27 1522.49 1330.72 1526.17 Q1335.16 1529.84 1335.16 1534.77 Q1335.16 1539.66 1330.62 1543.2 Q1326.11 1546.71 1320.12 1546.71 L1308.98 1546.71 L1308.98 1562.4 Q1308.98 1564.3 1309.78 1564.91 Q1310.62 1565.52 1314.2 1565.52 L1315.77 1565.52 L1315.77 1567.55 Q1313.46 1567.36 1306.02 1567.36 Q1298.64 1567.36 1296.32 1567.55 M1308.79 1545.01 L1317.87 1545.01 Q1320.83 1545.01 1322.99 1544.17 Q1325.15 1543.33 1326.11 1542.33 Q1327.11 1541.3 1327.66 1539.66 Q1328.24 1537.99 1328.3 1537.08 Q1328.37 1536.15 1328.37 1534.77 Q1328.37 1533.32 1328.3 1532.41 Q1328.24 1531.48 1327.66 1529.84 Q1327.11 1528.16 1326.11 1527.16 Q1325.15 1526.13 1322.99 1525.36 Q1320.86 1524.56 1317.87 1524.56 L1312.01 1524.56 Q1309.75 1524.56 1309.27 1525.01 Q1308.79 1525.46 1308.79 1527.2 L1308.79 1545.01 Z" fill="#000000" fill-rule="nonzero" fill-opacity="1" /><path clip-path="url(#clip320)" d="M1340.72 1561.27 Q1340.72 1555.67 1347.33 1552.7 Q1351.29 1550.8 1359.47 1550.32 L1359.47 1547.91 Q1359.47 1543.82 1357.31 1541.66 Q1355.19 1539.47 1352.48 1539.47 Q1347.65 1539.47 1345.33 1542.49 Q1347.29 1542.56 1348 1543.56 Q1348.71 1544.52 1348.71 1545.52 Q1348.71 1546.84 1347.87 1547.71 Q1347.07 1548.55 1345.68 1548.55 Q1344.36 1548.55 1343.49 1547.74 Q1342.63 1546.91 1342.63 1545.46 Q1342.63 1542.24 1345.52 1540.11 Q1348.45 1537.99 1352.61 1537.99 Q1358.02 1537.99 1361.63 1541.63 Q1362.75 1542.75 1363.3 1544.2 Q1363.88 1545.65 1363.95 1546.62 Q1364.01 1547.55 1364.01 1549.42 L1364.01 1562.59 Q1364.01 1562.98 1364.14 1563.62 Q1364.27 1564.27 1364.85 1565.1 Q1365.46 1565.91 1366.46 1565.91 Q1368.84 1565.91 1368.81 1561.69 L1368.81 1557.99 L1370.48 1557.99 L1370.48 1561.69 Q1370.48 1565.2 1368.62 1566.58 Q1366.78 1567.94 1365.07 1567.94 Q1362.88 1567.94 1361.5 1566.33 Q1360.11 1564.72 1359.92 1562.53 Q1358.92 1565.04 1356.63 1566.68 Q1354.38 1568.29 1351.29 1568.29 Q1348.91 1568.29 1346.65 1567.68 Q1344.43 1567.1 1342.56 1565.46 Q1340.72 1563.78 1340.72 1561.27 M1345.81 1561.21 Q1345.81 1563.65 1347.55 1565.23 Q1349.29 1566.81 1351.74 1566.81 Q1354.51 1566.81 1356.99 1564.68 Q1359.47 1562.53 1359.47 1558.31 L1359.47 1551.71 Q1352.16 1551.96 1348.97 1554.89 Q1345.81 1557.79 1345.81 1561.21 Z" fill="#000000" fill-rule="nonzero" fill-opacity="1" /><path clip-path="url(#clip320)" d="M1407.71 1535.21 Q1407.98 1535.48 1407.98 1535.87 Q1407.98 1536.25 1407.71 1536.52 Q1407.44 1536.79 1407.06 1536.79 L1378.16 1536.79 Q1377.77 1536.79 1377.5 1536.52 Q1377.23 1536.25 1377.23 1535.87 Q1377.23 1535.48 1377.5 1535.21 Q1377.77 1534.94 1378.16 1534.94 L1407.06 1534.94 Q1407.44 1534.94 1407.71 1535.21 Z" fill="#000000" fill-rule="nonzero" fill-opacity="1" /><path clip-path="url(#clip320)" d="M1412.8 1521.05 L1412.8 1519.61 Q1418.35 1519.61 1421.21 1516.66 Q1422 1516.66 1422.14 1516.84 Q1422.27 1517.02 1422.27 1517.85 L1422.27 1543.76 Q1422.27 1545.13 1422.95 1545.56 Q1423.62 1545.99 1426.58 1545.99 L1428.04 1545.99 L1428.04 1547.41 Q1426.42 1547.27 1420.56 1547.27 Q1414.7 1547.27 1413.1 1547.41 L1413.1 1545.99 L1414.56 1545.99 Q1417.47 1545.99 1418.17 1545.58 Q1418.87 1545.15 1418.87 1543.76 L1418.87 1519.84 Q1416.46 1521.05 1412.8 1521.05 Z" fill="#000000" fill-rule="nonzero" fill-opacity="1" /><path clip-path="url(#clip320)" d="M1442.71 1583.4 Q1442.71 1583.07 1443.55 1582.27 Q1454.17 1571.45 1454.17 1551.06 Q1454.17 1530.61 1443.96 1520.27 Q1442.71 1519.08 1442.71 1518.73 Q1442.71 1518.08 1443.35 1518.08 Q1443.8 1518.08 1445.38 1519.4 Q1446.99 1520.72 1449.41 1523.75 Q1451.85 1526.78 1453.66 1530.48 Q1458.01 1539.47 1458.01 1551.06 Q1458.01 1562.2 1453.85 1571.19 Q1452.08 1574.96 1449.6 1578.11 Q1447.12 1581.27 1445.48 1582.66 Q1443.84 1584.04 1443.35 1584.04 Q1442.71 1584.04 1442.71 1583.4 Z" fill="#000000" fill-rule="nonzero" fill-opacity="1" /><polyline clip-path="url(#clip320)" style="stroke:#000000; stroke-linecap:round; stroke-linejoin:round; stroke-width:4; stroke-opacity:1; fill:none" points="249.704,1403.57 249.704,47.2441 "/>
<polyline clip-path="url(#clip320)" style="stroke:#000000; stroke-linecap:round; stroke-linejoin:round; stroke-width:4; stroke-opacity:1; fill:none" points="249.704,1309.55 268.602,1309.55 "/>
<polyline clip-path="url(#clip320)" style="stroke:#000000; stroke-linecap:round; stroke-linejoin:round; stroke-width:4; stroke-opacity:1; fill:none" points="249.704,1031.38 268.602,1031.38 "/>
<polyline clip-path="url(#clip320)" style="stroke:#000000; stroke-linecap:round; stroke-linejoin:round; stroke-width:4; stroke-opacity:1; fill:none" points="249.704,753.221 268.602,753.221 "/>
<polyline clip-path="url(#clip320)" style="stroke:#000000; stroke-linecap:round; stroke-linejoin:round; stroke-width:4; stroke-opacity:1; fill:none" points="249.704,475.059 268.602,475.059 "/>
<polyline clip-path="url(#clip320)" style="stroke:#000000; stroke-linecap:round; stroke-linejoin:round; stroke-width:4; stroke-opacity:1; fill:none" points="249.704,196.896 268.602,196.896 "/>
<path clip-path="url(#clip320)" d="M127.362 1295.35 Q123.751 1295.35 121.922 1298.91 Q120.117 1302.45 120.117 1309.58 Q120.117 1316.69 121.922 1320.25 Q123.751 1323.79 127.362 1323.79 Q130.996 1323.79 132.802 1320.25 Q134.63 1316.69 134.63 1309.58 Q134.63 1302.45 132.802 1298.91 Q130.996 1295.35 127.362 1295.35 M127.362 1291.64 Q133.172 1291.64 136.228 1296.25 Q139.306 1300.83 139.306 1309.58 Q139.306 1318.31 136.228 1322.92 Q133.172 1327.5 127.362 1327.5 Q121.552 1327.5 118.473 1322.92 Q115.418 1318.31 115.418 1309.58 Q115.418 1300.83 118.473 1296.25 Q121.552 1291.64 127.362 1291.64 Z" fill="#000000" fill-rule="nonzero" fill-opacity="1" /><path clip-path="url(#clip320)" d="M147.524 1320.95 L152.408 1320.95 L152.408 1326.83 L147.524 1326.83 L147.524 1320.95 Z" fill="#000000" fill-rule="nonzero" fill-opacity="1" /><path clip-path="url(#clip320)" d="M172.593 1295.35 Q168.982 1295.35 167.153 1298.91 Q165.348 1302.45 165.348 1309.58 Q165.348 1316.69 167.153 1320.25 Q168.982 1323.79 172.593 1323.79 Q176.227 1323.79 178.033 1320.25 Q179.862 1316.69 179.862 1309.58 Q179.862 1302.45 178.033 1298.91 Q176.227 1295.35 172.593 1295.35 M172.593 1291.64 Q178.403 1291.64 181.459 1296.25 Q184.538 1300.83 184.538 1309.58 Q184.538 1318.31 181.459 1322.92 Q178.403 1327.5 172.593 1327.5 Q166.783 1327.5 163.704 1322.92 Q160.649 1318.31 160.649 1309.58 Q160.649 1300.83 163.704 1296.25 Q166.783 1291.64 172.593 1291.64 Z" fill="#000000" fill-rule="nonzero" fill-opacity="1" /><path clip-path="url(#clip320)" d="M192.801 1292.27 L211.158 1292.27 L211.158 1296.2 L197.084 1296.2 L197.084 1304.67 Q198.102 1304.33 199.121 1304.17 Q200.139 1303.98 201.158 1303.98 Q206.945 1303.98 210.324 1307.15 Q213.704 1310.32 213.704 1315.74 Q213.704 1321.32 210.232 1324.42 Q206.76 1327.5 200.44 1327.5 Q198.264 1327.5 195.996 1327.13 Q193.75 1326.76 191.343 1326.02 L191.343 1321.32 Q193.426 1322.45 195.649 1323.01 Q197.871 1323.56 200.348 1323.56 Q204.352 1323.56 206.69 1321.46 Q209.028 1319.35 209.028 1315.74 Q209.028 1312.13 206.69 1310.02 Q204.352 1307.92 200.348 1307.92 Q198.473 1307.92 196.598 1308.33 Q194.746 1308.75 192.801 1309.63 L192.801 1292.27 Z" fill="#000000" fill-rule="nonzero" fill-opacity="1" /><path clip-path="url(#clip320)" d="M126.205 1017.18 Q122.593 1017.18 120.765 1020.75 Q118.959 1024.29 118.959 1031.42 Q118.959 1038.53 120.765 1042.09 Q122.593 1045.63 126.205 1045.63 Q129.839 1045.63 131.644 1042.09 Q133.473 1038.53 133.473 1031.42 Q133.473 1024.29 131.644 1020.75 Q129.839 1017.18 126.205 1017.18 M126.205 1013.48 Q132.015 1013.48 135.07 1018.09 Q138.149 1022.67 138.149 1031.42 Q138.149 1040.15 135.07 1044.75 Q132.015 1049.34 126.205 1049.34 Q120.394 1049.34 117.316 1044.75 Q114.26 1040.15 114.26 1031.42 Q114.26 1022.67 117.316 1018.09 Q120.394 1013.48 126.205 1013.48 Z" fill="#000000" fill-rule="nonzero" fill-opacity="1" /><path clip-path="url(#clip320)" d="M146.366 1042.78 L151.251 1042.78 L151.251 1048.66 L146.366 1048.66 L146.366 1042.78 Z" fill="#000000" fill-rule="nonzero" fill-opacity="1" /><path clip-path="url(#clip320)" d="M171.436 1017.18 Q167.825 1017.18 165.996 1020.75 Q164.19 1024.29 164.19 1031.42 Q164.19 1038.53 165.996 1042.09 Q167.825 1045.63 171.436 1045.63 Q175.07 1045.63 176.876 1042.09 Q178.704 1038.53 178.704 1031.42 Q178.704 1024.29 176.876 1020.75 Q175.07 1017.18 171.436 1017.18 M171.436 1013.48 Q177.246 1013.48 180.301 1018.09 Q183.38 1022.67 183.38 1031.42 Q183.38 1040.15 180.301 1044.75 Q177.246 1049.34 171.436 1049.34 Q165.626 1049.34 162.547 1044.75 Q159.491 1040.15 159.491 1031.42 Q159.491 1022.67 162.547 1018.09 Q165.626 1013.48 171.436 1013.48 Z" fill="#000000" fill-rule="nonzero" fill-opacity="1" /><path clip-path="url(#clip320)" d="M202.176 1029.52 Q199.028 1029.52 197.176 1031.67 Q195.348 1033.83 195.348 1037.58 Q195.348 1041.3 197.176 1043.48 Q199.028 1045.63 202.176 1045.63 Q205.324 1045.63 207.153 1043.48 Q209.005 1041.3 209.005 1037.58 Q209.005 1033.83 207.153 1031.67 Q205.324 1029.52 202.176 1029.52 M211.459 1014.87 L211.459 1019.13 Q209.699 1018.29 207.894 1017.85 Q206.112 1017.41 204.352 1017.41 Q199.723 1017.41 197.269 1020.54 Q194.838 1023.66 194.491 1029.98 Q195.857 1027.97 197.917 1026.91 Q199.977 1025.82 202.454 1025.82 Q207.662 1025.82 210.672 1028.99 Q213.704 1032.14 213.704 1037.58 Q213.704 1042.9 210.556 1046.12 Q207.408 1049.34 202.176 1049.34 Q196.181 1049.34 193.01 1044.75 Q189.838 1040.15 189.838 1031.42 Q189.838 1023.22 193.727 1018.36 Q197.616 1013.48 204.167 1013.48 Q205.926 1013.48 207.709 1013.83 Q209.514 1014.17 211.459 1014.87 Z" fill="#000000" fill-rule="nonzero" fill-opacity="1" /><path clip-path="url(#clip320)" d="M127.269 739.02 Q123.658 739.02 121.83 742.585 Q120.024 746.127 120.024 753.256 Q120.024 760.363 121.83 763.927 Q123.658 767.469 127.269 767.469 Q130.904 767.469 132.709 763.927 Q134.538 760.363 134.538 753.256 Q134.538 746.127 132.709 742.585 Q130.904 739.02 127.269 739.02 M127.269 735.316 Q133.08 735.316 136.135 739.923 Q139.214 744.506 139.214 753.256 Q139.214 761.983 136.135 766.589 Q133.08 771.173 127.269 771.173 Q121.459 771.173 118.381 766.589 Q115.325 761.983 115.325 753.256 Q115.325 744.506 118.381 739.923 Q121.459 735.316 127.269 735.316 Z" fill="#000000" fill-rule="nonzero" fill-opacity="1" /><path clip-path="url(#clip320)" d="M147.431 764.622 L152.316 764.622 L152.316 770.501 L147.431 770.501 L147.431 764.622 Z" fill="#000000" fill-rule="nonzero" fill-opacity="1" /><path clip-path="url(#clip320)" d="M172.501 739.02 Q168.889 739.02 167.061 742.585 Q165.255 746.127 165.255 753.256 Q165.255 760.363 167.061 763.927 Q168.889 767.469 172.501 767.469 Q176.135 767.469 177.94 763.927 Q179.769 760.363 179.769 753.256 Q179.769 746.127 177.94 742.585 Q176.135 739.02 172.501 739.02 M172.501 735.316 Q178.311 735.316 181.366 739.923 Q184.445 744.506 184.445 753.256 Q184.445 761.983 181.366 766.589 Q178.311 771.173 172.501 771.173 Q166.69 771.173 163.612 766.589 Q160.556 761.983 160.556 753.256 Q160.556 744.506 163.612 739.923 Q166.69 735.316 172.501 735.316 Z" fill="#000000" fill-rule="nonzero" fill-opacity="1" /><path clip-path="url(#clip320)" d="M191.482 735.941 L213.704 735.941 L213.704 737.932 L201.158 770.501 L196.274 770.501 L208.079 739.877 L191.482 739.877 L191.482 735.941 Z" fill="#000000" fill-rule="nonzero" fill-opacity="1" /><path clip-path="url(#clip320)" d="M126.459 460.857 Q122.848 460.857 121.019 464.422 Q119.214 467.964 119.214 475.093 Q119.214 482.2 121.019 485.765 Q122.848 489.306 126.459 489.306 Q130.093 489.306 131.899 485.765 Q133.728 482.2 133.728 475.093 Q133.728 467.964 131.899 464.422 Q130.093 460.857 126.459 460.857 M126.459 457.154 Q132.269 457.154 135.325 461.76 Q138.404 466.343 138.404 475.093 Q138.404 483.82 135.325 488.427 Q132.269 493.01 126.459 493.01 Q120.649 493.01 117.57 488.427 Q114.515 483.82 114.515 475.093 Q114.515 466.343 117.57 461.76 Q120.649 457.154 126.459 457.154 Z" fill="#000000" fill-rule="nonzero" fill-opacity="1" /><path clip-path="url(#clip320)" d="M146.621 486.459 L151.505 486.459 L151.505 492.339 L146.621 492.339 L146.621 486.459 Z" fill="#000000" fill-rule="nonzero" fill-opacity="1" /><path clip-path="url(#clip320)" d="M171.69 460.857 Q168.079 460.857 166.251 464.422 Q164.445 467.964 164.445 475.093 Q164.445 482.2 166.251 485.765 Q168.079 489.306 171.69 489.306 Q175.325 489.306 177.13 485.765 Q178.959 482.2 178.959 475.093 Q178.959 467.964 177.13 464.422 Q175.325 460.857 171.69 460.857 M171.69 457.154 Q177.501 457.154 180.556 461.76 Q183.635 466.343 183.635 475.093 Q183.635 483.82 180.556 488.427 Q177.501 493.01 171.69 493.01 Q165.88 493.01 162.802 488.427 Q159.746 483.82 159.746 475.093 Q159.746 466.343 162.802 461.76 Q165.88 457.154 171.69 457.154 Z" fill="#000000" fill-rule="nonzero" fill-opacity="1" /><path clip-path="url(#clip320)" d="M201.852 475.927 Q198.519 475.927 196.598 477.709 Q194.7 479.491 194.7 482.616 Q194.7 485.741 196.598 487.524 Q198.519 489.306 201.852 489.306 Q205.186 489.306 207.107 487.524 Q209.028 485.718 209.028 482.616 Q209.028 479.491 207.107 477.709 Q205.209 475.927 201.852 475.927 M197.176 473.936 Q194.167 473.195 192.477 471.135 Q190.811 469.075 190.811 466.112 Q190.811 461.968 193.75 459.561 Q196.713 457.154 201.852 457.154 Q207.014 457.154 209.954 459.561 Q212.894 461.968 212.894 466.112 Q212.894 469.075 211.204 471.135 Q209.537 473.195 206.551 473.936 Q209.931 474.723 211.806 477.015 Q213.704 479.306 213.704 482.616 Q213.704 487.639 210.625 490.325 Q207.57 493.01 201.852 493.01 Q196.135 493.01 193.056 490.325 Q190 487.639 190 482.616 Q190 479.306 191.899 477.015 Q193.797 474.723 197.176 473.936 M195.463 466.552 Q195.463 469.237 197.13 470.741 Q198.82 472.246 201.852 472.246 Q204.862 472.246 206.551 470.741 Q208.264 469.237 208.264 466.552 Q208.264 463.866 206.551 462.362 Q204.862 460.857 201.852 460.857 Q198.82 460.857 197.13 462.362 Q195.463 463.866 195.463 466.552 Z" fill="#000000" fill-rule="nonzero" fill-opacity="1" /><path clip-path="url(#clip320)" d="M126.552 182.694 Q122.941 182.694 121.112 186.259 Q119.306 189.801 119.306 196.93 Q119.306 204.037 121.112 207.602 Q122.941 211.143 126.552 211.143 Q130.186 211.143 131.992 207.602 Q133.82 204.037 133.82 196.93 Q133.82 189.801 131.992 186.259 Q130.186 182.694 126.552 182.694 M126.552 178.991 Q132.362 178.991 135.417 183.597 Q138.496 188.18 138.496 196.93 Q138.496 205.657 135.417 210.264 Q132.362 214.847 126.552 214.847 Q120.742 214.847 117.663 210.264 Q114.607 205.657 114.607 196.93 Q114.607 188.18 117.663 183.597 Q120.742 178.991 126.552 178.991 Z" fill="#000000" fill-rule="nonzero" fill-opacity="1" /><path clip-path="url(#clip320)" d="M146.714 208.296 L151.598 208.296 L151.598 214.176 L146.714 214.176 L146.714 208.296 Z" fill="#000000" fill-rule="nonzero" fill-opacity="1" /><path clip-path="url(#clip320)" d="M171.783 182.694 Q168.172 182.694 166.343 186.259 Q164.538 189.801 164.538 196.93 Q164.538 204.037 166.343 207.602 Q168.172 211.143 171.783 211.143 Q175.417 211.143 177.223 207.602 Q179.051 204.037 179.051 196.93 Q179.051 189.801 177.223 186.259 Q175.417 182.694 171.783 182.694 M171.783 178.991 Q177.593 178.991 180.649 183.597 Q183.727 188.18 183.727 196.93 Q183.727 205.657 180.649 210.264 Q177.593 214.847 171.783 214.847 Q165.973 214.847 162.894 210.264 Q159.839 205.657 159.839 196.93 Q159.839 188.18 162.894 183.597 Q165.973 178.991 171.783 178.991 Z" fill="#000000" fill-rule="nonzero" fill-opacity="1" /><path clip-path="url(#clip320)" d="M192.084 213.458 L192.084 209.199 Q193.843 210.032 195.649 210.472 Q197.454 210.912 199.19 210.912 Q203.82 210.912 206.25 207.81 Q208.704 204.685 209.051 198.342 Q207.709 200.333 205.649 201.398 Q203.588 202.463 201.088 202.463 Q195.903 202.463 192.871 199.338 Q189.862 196.19 189.862 190.75 Q189.862 185.426 193.01 182.208 Q196.158 178.991 201.389 178.991 Q207.385 178.991 210.533 183.597 Q213.704 188.18 213.704 196.93 Q213.704 205.102 209.815 209.986 Q205.949 214.847 199.399 214.847 Q197.639 214.847 195.834 214.5 Q194.028 214.153 192.084 213.458 M201.389 198.805 Q204.537 198.805 206.366 196.653 Q208.218 194.5 208.218 190.75 Q208.218 187.023 206.366 184.87 Q204.537 182.694 201.389 182.694 Q198.241 182.694 196.389 184.87 Q194.561 187.023 194.561 190.75 Q194.561 194.5 196.389 196.653 Q198.241 198.805 201.389 198.805 Z" fill="#000000" fill-rule="nonzero" fill-opacity="1" /><path clip-path="url(#clip320)" d="M49.7879 769.036 Q49.9812 769.036 50.7219 769.294 L64.9569 774.511 Q65.7942 774.801 65.9553 775.091 Q66.0841 775.381 66.0841 776.572 L66.0841 807.103 Q66.0841 807.844 66.0519 808.134 Q66.0197 808.424 65.8587 808.649 Q65.6976 808.875 65.3434 808.875 Q64.6992 808.875 64.4094 808.649 Q64.1195 808.392 64.0873 808.102 Q64.0551 807.812 64.0551 807.103 Q64.0551 805.493 63.9585 804.527 Q63.8619 803.561 63.7331 802.949 Q63.572 802.305 63.1212 801.983 Q62.6703 801.628 62.2838 801.467 Q61.8651 801.306 60.9312 801.081 L25.5047 792.256 Q24.4419 791.999 24.2809 791.999 Q23.669 791.999 23.5079 792.385 Q23.3147 792.74 23.2181 793.77 L23.0893 796.282 Q23.0893 797.055 23.0571 797.377 Q23.0249 797.667 22.8638 797.892 Q22.7028 798.118 22.3485 798.118 Q21.7366 798.118 21.4468 797.892 Q21.1247 797.635 21.0925 797.442 Q21.0281 797.216 21.0281 796.862 L21.2213 788.102 L21.0281 778.344 Q21.0281 777.281 21.8332 777.281 Q22.735 777.281 22.9282 777.732 Q23.0893 778.182 23.0893 779.793 Q23.0893 782.885 23.4113 784.302 Q23.7334 785.686 24.2809 786.073 Q24.7962 786.427 26.181 786.781 L61.8007 795.702 Q62.9923 796.025 63.3144 796.025 Q63.6687 796.025 63.7975 795.864 Q63.8941 795.67 63.9585 795.155 Q64.0551 794.575 64.0551 793.706 L64.0551 787.522 Q64.0551 785.654 63.7653 784.012 Q63.4754 782.369 63.0567 781.113 Q62.6381 779.825 61.8651 778.666 Q61.0922 777.506 60.4159 776.701 Q59.7073 775.864 58.6123 775.059 Q57.4851 774.221 56.7122 773.738 Q55.907 773.223 54.6188 772.643 Q53.2984 772.063 52.5576 771.774 Q51.7847 771.451 50.4643 770.968 Q49.7879 770.679 49.5947 770.582 Q49.4015 770.485 49.2404 770.324 Q49.0794 770.131 49.0794 769.841 Q49.0794 769.455 49.3048 769.261 Q49.5303 769.036 49.7879 769.036 Z" fill="#000000" fill-rule="nonzero" fill-opacity="1" /><path clip-path="url(#clip320)" d="M49.5947 746.977 Q38.4515 746.977 29.466 742.823 Q25.6979 741.051 22.5418 738.572 Q19.3856 736.092 18.0007 734.449 Q16.6159 732.807 16.6159 732.356 Q16.6159 731.712 17.26 731.68 Q17.5821 731.68 18.3872 732.549 Q29.2084 743.177 49.5947 743.145 Q70.0454 743.145 80.4479 732.807 Q81.5751 731.68 81.9294 731.68 Q82.5735 731.68 82.5735 732.356 Q82.5735 732.807 81.2531 734.385 Q79.9326 735.963 76.9053 738.411 Q73.8779 740.858 70.1742 742.629 Q61.1888 746.977 49.5947 746.977 Z" fill="#000000" fill-rule="nonzero" fill-opacity="1" /><path clip-path="url(#clip320)" d="M66.0841 721.65 L64.0551 721.65 Q64.0551 718.139 63.6364 717.334 Q63.1856 716.529 61.06 716.529 L43.379 716.529 Q40.9313 716.529 40.3194 717.399 Q39.7075 718.236 39.7075 721.65 L37.6463 721.65 L36.9378 712.375 L43.8621 712.375 Q36.9378 709.283 36.9378 702.616 Q36.9378 694.887 43.379 693.824 Q40.8669 692.697 38.9023 690.346 Q36.9378 687.963 36.9378 684.259 Q36.9378 679.299 39.3854 677.335 Q41.0279 675.885 42.8637 675.595 Q44.6994 675.306 49.4659 675.306 L62.0584 675.306 Q63.4432 675.241 63.7653 674.178 Q64.0551 673.116 64.0551 670.153 L66.0841 670.153 Q65.8909 676.884 65.8909 677.528 Q65.8909 678.043 66.0841 685 L64.0551 685 Q64.0551 681.489 63.6364 680.684 Q63.1856 679.847 61.06 679.847 L45.6978 679.847 Q42.3484 679.847 40.3838 680.877 Q38.3871 681.908 38.3871 684.742 Q38.3871 688.156 41.2534 690.893 Q44.1197 693.631 48.9506 693.631 L61.06 693.631 Q63.1856 693.631 63.6364 692.826 Q64.0551 691.988 64.0551 688.478 L66.0841 688.478 Q65.8909 695.209 65.8909 695.885 Q65.8909 696.4 66.0841 703.325 L64.0551 703.325 Q64.0551 699.814 63.6364 699.009 Q63.1856 698.172 61.06 698.172 L45.6978 698.172 Q42.3484 698.172 40.3838 699.202 Q38.3871 700.233 38.3871 703.067 Q38.3871 706.481 41.2534 709.218 Q44.1197 711.956 48.9506 711.956 L61.06 711.956 Q63.1856 711.956 63.6364 711.151 Q64.0551 710.313 64.0551 706.835 L66.0841 706.835 Q65.8909 713.566 65.8909 714.21 Q65.8909 714.726 66.0841 721.65 Z" fill="#000000" fill-rule="nonzero" fill-opacity="1" /><path clip-path="url(#clip320)" d="M81.9294 667.263 Q81.6073 667.263 80.8022 666.426 Q69.981 655.798 49.5947 655.798 Q29.144 655.798 18.8059 666.007 Q17.6143 667.263 17.26 667.263 Q16.6159 667.263 16.6159 666.619 Q16.6159 666.168 17.9363 664.59 Q19.2568 662.98 22.2841 660.564 Q25.3115 658.116 29.0151 656.313 Q38.0006 651.965 49.5947 651.965 Q60.7379 651.965 69.7234 656.12 Q73.4914 657.891 76.6476 660.371 Q79.8038 662.851 81.1886 664.493 Q82.5735 666.136 82.5735 666.619 Q82.5735 667.263 81.9294 667.263 Z" fill="#000000" fill-rule="nonzero" fill-opacity="1" /><circle clip-path="url(#clip322)" cx="2293.24" cy="85.6306" r="14.4" fill="#009af9" fill-rule="evenodd" fill-opacity="1" stroke="#000000" stroke-opacity="1" stroke-width="3.2"/>
<circle clip-path="url(#clip322)" cx="1958.61" cy="280.345" r="14.4" fill="#009af9" fill-rule="evenodd" fill-opacity="1" stroke="#000000" stroke-opacity="1" stroke-width="3.2"/>
<circle clip-path="url(#clip322)" cx="1625.58" cy="475.059" r="14.4" fill="#009af9" fill-rule="evenodd" fill-opacity="1" stroke="#000000" stroke-opacity="1" stroke-width="3.2"/>
<circle clip-path="url(#clip322)" cx="1294.14" cy="697.589" r="14.4" fill="#009af9" fill-rule="evenodd" fill-opacity="1" stroke="#000000" stroke-opacity="1" stroke-width="3.2"/>
<circle clip-path="url(#clip322)" cx="964.272" cy="892.303" r="14.4" fill="#009af9" fill-rule="evenodd" fill-opacity="1" stroke="#000000" stroke-opacity="1" stroke-width="3.2"/>
<circle clip-path="url(#clip322)" cx="635.971" cy="1114.83" r="14.4" fill="#009af9" fill-rule="evenodd" fill-opacity="1" stroke="#000000" stroke-opacity="1" stroke-width="3.2"/>
<circle clip-path="url(#clip322)" cx="309.224" cy="1365.18" r="14.4" fill="#009af9" fill-rule="evenodd" fill-opacity="1" stroke="#000000" stroke-opacity="1" stroke-width="3.2"/>
<polyline clip-path="url(#clip322)" style="stroke:#e26f46; stroke-linecap:round; stroke-linejoin:round; stroke-width:4; stroke-opacity:1; fill:none" points="-1820.53,2696.43 4390.17,-1277.35 "/>
</svg>
