<?xml version="1.0" encoding="utf-8"?>
<svg xmlns="http://www.w3.org/2000/svg" xmlns:xlink="http://www.w3.org/1999/xlink" width="600" height="600" viewBox="0 0 2400 2400">
<defs>
  <clipPath id="clip930">
    <rect x="0" y="0" width="2400" height="2400"/>
  </clipPath>
</defs>
<path clip-path="url(#clip930)" d="M0 2400 L2400 2400 L2400 0 L0 0  Z" fill="#ffffff" fill-rule="evenodd" fill-opacity="1"/>
<defs>
  <clipPath id="clip931">
    <rect x="480" y="240" width="1681" height="1681"/>
  </clipPath>
</defs>
<path clip-path="url(#clip930)" d="M273.464 2144.72 L2352.76 2144.72 L2352.76 47.2441 L273.464 47.2441  Z" fill="#ffffff" fill-rule="evenodd" fill-opacity="1"/>
<defs>
  <clipPath id="clip932">
    <rect x="273" y="47" width="2080" height="2098"/>
  </clipPath>
</defs>
<polyline clip-path="url(#clip932)" style="stroke:#000000; stroke-linecap:round; stroke-linejoin:round; stroke-width:2; stroke-opacity:0.1; fill:none" points="329.615,2144.72 329.615,47.2441 "/>
<polyline clip-path="url(#clip932)" style="stroke:#000000; stroke-linecap:round; stroke-linejoin:round; stroke-width:2; stroke-opacity:0.1; fill:none" points="737.386,2144.72 737.386,47.2441 "/>
<polyline clip-path="url(#clip932)" style="stroke:#000000; stroke-linecap:round; stroke-linejoin:round; stroke-width:2; stroke-opacity:0.1; fill:none" points="1145.16,2144.72 1145.16,47.2441 "/>
<polyline clip-path="url(#clip932)" style="stroke:#000000; stroke-linecap:round; stroke-linejoin:round; stroke-width:2; stroke-opacity:0.1; fill:none" points="1552.93,2144.72 1552.93,47.2441 "/>
<polyline clip-path="url(#clip932)" style="stroke:#000000; stroke-linecap:round; stroke-linejoin:round; stroke-width:2; stroke-opacity:0.1; fill:none" points="1960.7,2144.72 1960.7,47.2441 "/>
<polyline clip-path="url(#clip932)" style="stroke:#000000; stroke-linecap:round; stroke-linejoin:round; stroke-width:2; stroke-opacity:0.1; fill:none" points="273.464,1999.32 2352.76,1999.32 "/>
<polyline clip-path="url(#clip932)" style="stroke:#000000; stroke-linecap:round; stroke-linejoin:round; stroke-width:2; stroke-opacity:0.1; fill:none" points="273.464,1569.16 2352.76,1569.16 "/>
<polyline clip-path="url(#clip932)" style="stroke:#000000; stroke-linecap:round; stroke-linejoin:round; stroke-width:2; stroke-opacity:0.1; fill:none" points="273.464,1139 2352.76,1139 "/>
<polyline clip-path="url(#clip932)" style="stroke:#000000; stroke-linecap:round; stroke-linejoin:round; stroke-width:2; stroke-opacity:0.1; fill:none" points="273.464,708.835 2352.76,708.835 "/>
<polyline clip-path="url(#clip932)" style="stroke:#000000; stroke-linecap:round; stroke-linejoin:round; stroke-width:2; stroke-opacity:0.1; fill:none" points="273.464,278.672 2352.76,278.672 "/>
<polyline clip-path="url(#clip930)" style="stroke:#000000; stroke-linecap:round; stroke-linejoin:round; stroke-width:4; stroke-opacity:1; fill:none" points="273.464,2144.72 2352.76,2144.72 "/>
<polyline clip-path="url(#clip930)" style="stroke:#000000; stroke-linecap:round; stroke-linejoin:round; stroke-width:4; stroke-opacity:1; fill:none" points="329.615,2144.72 329.615,2125.82 "/>
<polyline clip-path="url(#clip930)" style="stroke:#000000; stroke-linecap:round; stroke-linejoin:round; stroke-width:4; stroke-opacity:1; fill:none" points="737.386,2144.72 737.386,2125.82 "/>
<polyline clip-path="url(#clip930)" style="stroke:#000000; stroke-linecap:round; stroke-linejoin:round; stroke-width:4; stroke-opacity:1; fill:none" points="1145.16,2144.72 1145.16,2125.82 "/>
<polyline clip-path="url(#clip930)" style="stroke:#000000; stroke-linecap:round; stroke-linejoin:round; stroke-width:4; stroke-opacity:1; fill:none" points="1552.93,2144.72 1552.93,2125.82 "/>
<polyline clip-path="url(#clip930)" style="stroke:#000000; stroke-linecap:round; stroke-linejoin:round; stroke-width:4; stroke-opacity:1; fill:none" points="1960.7,2144.72 1960.7,2125.82 "/>
<path clip-path="url(#clip930)" d="M176.835 2218.84 L184.474 2218.84 L184.474 2192.48 L176.164 2194.15 L176.164 2189.89 L184.428 2188.22 L189.104 2188.22 L189.104 2218.84 L196.743 2218.84 L196.743 2222.78 L176.835 2222.78 L176.835 2218.84 Z" fill="#000000" fill-rule="nonzero" fill-opacity="1" /><path clip-path="url(#clip930)" d="M206.187 2216.9 L211.071 2216.9 L211.071 2222.78 L206.187 2222.78 L206.187 2216.9 Z" fill="#000000" fill-rule="nonzero" fill-opacity="1" /><path clip-path="url(#clip930)" d="M231.256 2191.3 Q227.645 2191.3 225.817 2194.86 Q224.011 2198.4 224.011 2205.53 Q224.011 2212.64 225.817 2216.21 Q227.645 2219.75 231.256 2219.75 Q234.891 2219.75 236.696 2216.21 Q238.525 2212.64 238.525 2205.53 Q238.525 2198.4 236.696 2194.86 Q234.891 2191.3 231.256 2191.3 M231.256 2187.59 Q237.067 2187.59 240.122 2192.2 Q243.201 2196.78 243.201 2205.53 Q243.201 2214.26 240.122 2218.87 Q237.067 2223.45 231.256 2223.45 Q225.446 2223.45 222.368 2218.87 Q219.312 2214.26 219.312 2205.53 Q219.312 2196.78 222.368 2192.2 Q225.446 2187.59 231.256 2187.59 Z" fill="#000000" fill-rule="nonzero" fill-opacity="1" /><path clip-path="url(#clip930)" d="M261.418 2191.3 Q257.807 2191.3 255.979 2194.86 Q254.173 2198.4 254.173 2205.53 Q254.173 2212.64 255.979 2216.21 Q257.807 2219.75 261.418 2219.75 Q265.053 2219.75 266.858 2216.21 Q268.687 2212.64 268.687 2205.53 Q268.687 2198.4 266.858 2194.86 Q265.053 2191.3 261.418 2191.3 M261.418 2187.59 Q267.229 2187.59 270.284 2192.2 Q273.363 2196.78 273.363 2205.53 Q273.363 2214.26 270.284 2218.87 Q267.229 2223.45 261.418 2223.45 Q255.608 2223.45 252.53 2218.87 Q249.474 2214.26 249.474 2205.53 Q249.474 2196.78 252.53 2192.2 Q255.608 2187.59 261.418 2187.59 Z" fill="#000000" fill-rule="nonzero" fill-opacity="1" /><path clip-path="url(#clip930)" d="M285.608 2218.84 L301.927 2218.84 L301.927 2222.78 L279.983 2222.78 L279.983 2218.84 Q282.645 2216.09 287.228 2211.46 Q291.835 2206.81 293.015 2205.46 Q295.261 2202.94 296.14 2201.21 Q297.043 2199.45 297.043 2197.76 Q297.043 2195 295.099 2193.27 Q293.177 2191.53 290.076 2191.53 Q287.877 2191.53 285.423 2192.29 Q282.992 2193.06 280.215 2194.61 L280.215 2189.89 Q283.039 2188.75 285.492 2188.17 Q287.946 2187.59 289.983 2187.59 Q295.353 2187.59 298.548 2190.28 Q301.742 2192.96 301.742 2197.46 Q301.742 2199.58 300.932 2201.51 Q300.145 2203.4 298.039 2206 Q297.46 2206.67 294.358 2209.89 Q291.256 2213.08 285.608 2218.84 Z" fill="#000000" fill-rule="nonzero" fill-opacity="1" /><path clip-path="url(#clip930)" d="M321.742 2191.3 Q318.131 2191.3 316.302 2194.86 Q314.497 2198.4 314.497 2205.53 Q314.497 2212.64 316.302 2216.21 Q318.131 2219.75 321.742 2219.75 Q325.376 2219.75 327.182 2216.21 Q329.011 2212.64 329.011 2205.53 Q329.011 2198.4 327.182 2194.86 Q325.376 2191.3 321.742 2191.3 M321.742 2187.59 Q327.552 2187.59 330.608 2192.2 Q333.686 2196.78 333.686 2205.53 Q333.686 2214.26 330.608 2218.87 Q327.552 2223.45 321.742 2223.45 Q315.932 2223.45 312.853 2218.87 Q309.798 2214.26 309.798 2205.53 Q309.798 2196.78 312.853 2192.2 Q315.932 2187.59 321.742 2187.59 Z" fill="#000000" fill-rule="nonzero" fill-opacity="1" /><path clip-path="url(#clip930)" d="M370.075 2197.32 L359.497 2207.94 L370.075 2218.52 L367.321 2221.32 L356.696 2210.7 L346.071 2221.32 L343.339 2218.52 L353.895 2207.94 L343.339 2197.32 L346.071 2194.52 L356.696 2205.14 L367.321 2194.52 L370.075 2197.32 Z" fill="#000000" fill-rule="nonzero" fill-opacity="1" /><path clip-path="url(#clip930)" d="M382.436 2218.84 L390.075 2218.84 L390.075 2192.48 L381.765 2194.15 L381.765 2189.89 L390.029 2188.22 L394.705 2188.22 L394.705 2218.84 L402.344 2218.84 L402.344 2222.78 L382.436 2222.78 L382.436 2218.84 Z" fill="#000000" fill-rule="nonzero" fill-opacity="1" /><path clip-path="url(#clip930)" d="M421.788 2191.3 Q418.177 2191.3 416.348 2194.86 Q414.543 2198.4 414.543 2205.53 Q414.543 2212.64 416.348 2216.21 Q418.177 2219.75 421.788 2219.75 Q425.422 2219.75 427.228 2216.21 Q429.056 2212.64 429.056 2205.53 Q429.056 2198.4 427.228 2194.86 Q425.422 2191.3 421.788 2191.3 M421.788 2187.59 Q427.598 2187.59 430.654 2192.2 Q433.732 2196.78 433.732 2205.53 Q433.732 2214.26 430.654 2218.87 Q427.598 2223.45 421.788 2223.45 Q415.978 2223.45 412.899 2218.87 Q409.843 2214.26 409.843 2205.53 Q409.843 2196.78 412.899 2192.2 Q415.978 2187.59 421.788 2187.59 Z" fill="#000000" fill-rule="nonzero" fill-opacity="1" /><path clip-path="url(#clip930)" d="M433.732 2181.7 L457.844 2181.7 L457.844 2184.89 L433.732 2184.89 L433.732 2181.7 Z" fill="#000000" fill-rule="nonzero" fill-opacity="1" /><path clip-path="url(#clip930)" d="M466.082 2167.29 L480.996 2167.29 L480.996 2170.49 L469.561 2170.49 L469.561 2177.37 Q470.389 2177.09 471.216 2176.96 Q472.044 2176.81 472.871 2176.81 Q477.573 2176.81 480.319 2179.38 Q483.065 2181.96 483.065 2186.36 Q483.065 2190.89 480.244 2193.41 Q477.423 2195.91 472.288 2195.91 Q470.52 2195.91 468.677 2195.61 Q466.853 2195.31 464.897 2194.71 L464.897 2190.89 Q466.589 2191.81 468.395 2192.27 Q470.201 2192.72 472.213 2192.72 Q475.467 2192.72 477.366 2191.01 Q479.266 2189.29 479.266 2186.36 Q479.266 2183.43 477.366 2181.71 Q475.467 2180 472.213 2180 Q470.69 2180 469.166 2180.34 Q467.661 2180.68 466.082 2181.39 L466.082 2167.29 Z" fill="#000000" fill-rule="nonzero" fill-opacity="1" /><path clip-path="url(#clip930)" d="M584.607 2218.84 L592.246 2218.84 L592.246 2192.48 L583.935 2194.15 L583.935 2189.89 L592.199 2188.22 L596.875 2188.22 L596.875 2218.84 L604.514 2218.84 L604.514 2222.78 L584.607 2222.78 L584.607 2218.84 Z" fill="#000000" fill-rule="nonzero" fill-opacity="1" /><path clip-path="url(#clip930)" d="M613.958 2216.9 L618.843 2216.9 L618.843 2222.78 L613.958 2222.78 L613.958 2216.9 Z" fill="#000000" fill-rule="nonzero" fill-opacity="1" /><path clip-path="url(#clip930)" d="M639.028 2191.3 Q635.417 2191.3 633.588 2194.86 Q631.782 2198.4 631.782 2205.53 Q631.782 2212.64 633.588 2216.21 Q635.417 2219.75 639.028 2219.75 Q642.662 2219.75 644.468 2216.21 Q646.296 2212.64 646.296 2205.53 Q646.296 2198.4 644.468 2194.86 Q642.662 2191.3 639.028 2191.3 M639.028 2187.59 Q644.838 2187.59 647.893 2192.2 Q650.972 2196.78 650.972 2205.53 Q650.972 2214.26 647.893 2218.87 Q644.838 2223.45 639.028 2223.45 Q633.218 2223.45 630.139 2218.87 Q627.083 2214.26 627.083 2205.53 Q627.083 2196.78 630.139 2192.2 Q633.218 2187.59 639.028 2187.59 Z" fill="#000000" fill-rule="nonzero" fill-opacity="1" /><path clip-path="url(#clip930)" d="M669.19 2191.3 Q665.579 2191.3 663.75 2194.86 Q661.944 2198.4 661.944 2205.53 Q661.944 2212.64 663.75 2216.21 Q665.579 2219.75 669.19 2219.75 Q672.824 2219.75 674.629 2216.21 Q676.458 2212.64 676.458 2205.53 Q676.458 2198.4 674.629 2194.86 Q672.824 2191.3 669.19 2191.3 M669.19 2187.59 Q675 2187.59 678.055 2192.2 Q681.134 2196.78 681.134 2205.53 Q681.134 2214.26 678.055 2218.87 Q675 2223.45 669.19 2223.45 Q663.379 2223.45 660.301 2218.87 Q657.245 2214.26 657.245 2205.53 Q657.245 2196.78 660.301 2192.2 Q663.379 2187.59 669.19 2187.59 Z" fill="#000000" fill-rule="nonzero" fill-opacity="1" /><path clip-path="url(#clip930)" d="M689.398 2188.22 L707.754 2188.22 L707.754 2192.15 L693.68 2192.15 L693.68 2200.63 Q694.699 2200.28 695.717 2200.12 Q696.736 2199.93 697.754 2199.93 Q703.541 2199.93 706.921 2203.1 Q710.301 2206.27 710.301 2211.69 Q710.301 2217.27 706.828 2220.37 Q703.356 2223.45 697.037 2223.45 Q694.861 2223.45 692.592 2223.08 Q690.347 2222.71 687.94 2221.97 L687.94 2217.27 Q690.023 2218.4 692.245 2218.96 Q694.467 2219.52 696.944 2219.52 Q700.949 2219.52 703.287 2217.41 Q705.625 2215.3 705.625 2211.69 Q705.625 2208.08 703.287 2205.97 Q700.949 2203.87 696.944 2203.87 Q695.069 2203.87 693.194 2204.28 Q691.342 2204.7 689.398 2205.58 L689.398 2188.22 Z" fill="#000000" fill-rule="nonzero" fill-opacity="1" /><path clip-path="url(#clip930)" d="M729.513 2191.3 Q725.902 2191.3 724.074 2194.86 Q722.268 2198.4 722.268 2205.53 Q722.268 2212.64 724.074 2216.21 Q725.902 2219.75 729.513 2219.75 Q733.148 2219.75 734.953 2216.21 Q736.782 2212.64 736.782 2205.53 Q736.782 2198.4 734.953 2194.86 Q733.148 2191.3 729.513 2191.3 M729.513 2187.59 Q735.324 2187.59 738.379 2192.2 Q741.458 2196.78 741.458 2205.53 Q741.458 2214.26 738.379 2218.87 Q735.324 2223.45 729.513 2223.45 Q723.703 2223.45 720.625 2218.87 Q717.569 2214.26 717.569 2205.53 Q717.569 2196.78 720.625 2192.2 Q723.703 2187.59 729.513 2187.59 Z" fill="#000000" fill-rule="nonzero" fill-opacity="1" /><path clip-path="url(#clip930)" d="M777.846 2197.32 L767.268 2207.94 L777.846 2218.52 L775.092 2221.32 L764.467 2210.7 L753.842 2221.32 L751.11 2218.52 L761.666 2207.94 L751.11 2197.32 L753.842 2194.52 L764.467 2205.14 L775.092 2194.52 L777.846 2197.32 Z" fill="#000000" fill-rule="nonzero" fill-opacity="1" /><path clip-path="url(#clip930)" d="M790.207 2218.84 L797.846 2218.84 L797.846 2192.48 L789.536 2194.15 L789.536 2189.89 L797.8 2188.22 L802.476 2188.22 L802.476 2218.84 L810.115 2218.84 L810.115 2222.78 L790.207 2222.78 L790.207 2218.84 Z" fill="#000000" fill-rule="nonzero" fill-opacity="1" /><path clip-path="url(#clip930)" d="M829.559 2191.3 Q825.948 2191.3 824.119 2194.86 Q822.314 2198.4 822.314 2205.53 Q822.314 2212.64 824.119 2216.21 Q825.948 2219.75 829.559 2219.75 Q833.193 2219.75 834.999 2216.21 Q836.828 2212.64 836.828 2205.53 Q836.828 2198.4 834.999 2194.86 Q833.193 2191.3 829.559 2191.3 M829.559 2187.59 Q835.369 2187.59 838.425 2192.2 Q841.504 2196.78 841.504 2205.53 Q841.504 2214.26 838.425 2218.87 Q835.369 2223.45 829.559 2223.45 Q823.749 2223.45 820.67 2218.87 Q817.615 2214.26 817.615 2205.53 Q817.615 2196.78 820.67 2192.2 Q823.749 2187.59 829.559 2187.59 Z" fill="#000000" fill-rule="nonzero" fill-opacity="1" /><path clip-path="url(#clip930)" d="M841.504 2181.7 L865.615 2181.7 L865.615 2184.89 L841.504 2184.89 L841.504 2181.7 Z" fill="#000000" fill-rule="nonzero" fill-opacity="1" /><path clip-path="url(#clip930)" d="M873.853 2167.29 L888.767 2167.29 L888.767 2170.49 L877.332 2170.49 L877.332 2177.37 Q878.16 2177.09 878.987 2176.96 Q879.815 2176.81 880.642 2176.81 Q885.344 2176.81 888.09 2179.38 Q890.836 2181.96 890.836 2186.36 Q890.836 2190.89 888.015 2193.41 Q885.194 2195.91 880.059 2195.91 Q878.292 2195.91 876.448 2195.61 Q874.624 2195.31 872.668 2194.71 L872.668 2190.89 Q874.361 2191.81 876.166 2192.27 Q877.972 2192.72 879.984 2192.72 Q883.238 2192.72 885.138 2191.01 Q887.037 2189.29 887.037 2186.36 Q887.037 2183.43 885.138 2181.71 Q883.238 2180 879.984 2180 Q878.461 2180 876.937 2180.34 Q875.433 2180.68 873.853 2181.39 L873.853 2167.29 Z" fill="#000000" fill-rule="nonzero" fill-opacity="1" /><path clip-path="url(#clip930)" d="M992.378 2218.84 L1000.02 2218.84 L1000.02 2192.48 L991.707 2194.15 L991.707 2189.89 L999.971 2188.22 L1004.65 2188.22 L1004.65 2218.84 L1012.29 2218.84 L1012.29 2222.78 L992.378 2222.78 L992.378 2218.84 Z" fill="#000000" fill-rule="nonzero" fill-opacity="1" /><path clip-path="url(#clip930)" d="M1021.73 2216.9 L1026.61 2216.9 L1026.61 2222.78 L1021.73 2222.78 L1021.73 2216.9 Z" fill="#000000" fill-rule="nonzero" fill-opacity="1" /><path clip-path="url(#clip930)" d="M1046.8 2191.3 Q1043.19 2191.3 1041.36 2194.86 Q1039.55 2198.4 1039.55 2205.53 Q1039.55 2212.64 1041.36 2216.21 Q1043.19 2219.75 1046.8 2219.75 Q1050.43 2219.75 1052.24 2216.21 Q1054.07 2212.64 1054.07 2205.53 Q1054.07 2198.4 1052.24 2194.86 Q1050.43 2191.3 1046.8 2191.3 M1046.8 2187.59 Q1052.61 2187.59 1055.66 2192.2 Q1058.74 2196.78 1058.74 2205.53 Q1058.74 2214.26 1055.66 2218.87 Q1052.61 2223.45 1046.8 2223.45 Q1040.99 2223.45 1037.91 2218.87 Q1034.85 2214.26 1034.85 2205.53 Q1034.85 2196.78 1037.91 2192.2 Q1040.99 2187.59 1046.8 2187.59 Z" fill="#000000" fill-rule="nonzero" fill-opacity="1" /><path clip-path="url(#clip930)" d="M1076.96 2191.3 Q1073.35 2191.3 1071.52 2194.86 Q1069.72 2198.4 1069.72 2205.53 Q1069.72 2212.64 1071.52 2216.21 Q1073.35 2219.75 1076.96 2219.75 Q1080.6 2219.75 1082.4 2216.21 Q1084.23 2212.64 1084.23 2205.53 Q1084.23 2198.4 1082.4 2194.86 Q1080.6 2191.3 1076.96 2191.3 M1076.96 2187.59 Q1082.77 2187.59 1085.83 2192.2 Q1088.91 2196.78 1088.91 2205.53 Q1088.91 2214.26 1085.83 2218.87 Q1082.77 2223.45 1076.96 2223.45 Q1071.15 2223.45 1068.07 2218.87 Q1065.02 2214.26 1065.02 2205.53 Q1065.02 2196.78 1068.07 2192.2 Q1071.15 2187.59 1076.96 2187.59 Z" fill="#000000" fill-rule="nonzero" fill-opacity="1" /><path clip-path="url(#clip930)" d="M1107.12 2206.37 Q1103.79 2206.37 1101.87 2208.15 Q1099.97 2209.93 1099.97 2213.06 Q1099.97 2216.18 1101.87 2217.96 Q1103.79 2219.75 1107.12 2219.75 Q1110.46 2219.75 1112.38 2217.96 Q1114.3 2216.16 1114.3 2213.06 Q1114.3 2209.93 1112.38 2208.15 Q1110.48 2206.37 1107.12 2206.37 M1102.45 2204.38 Q1099.44 2203.64 1097.75 2201.58 Q1096.08 2199.52 1096.08 2196.55 Q1096.08 2192.41 1099.02 2190 Q1101.98 2187.59 1107.12 2187.59 Q1112.28 2187.59 1115.22 2190 Q1118.16 2192.41 1118.16 2196.55 Q1118.16 2199.52 1116.47 2201.58 Q1114.81 2203.64 1111.82 2204.38 Q1115.2 2205.16 1117.08 2207.46 Q1118.97 2209.75 1118.97 2213.06 Q1118.97 2218.08 1115.9 2220.77 Q1112.84 2223.45 1107.12 2223.45 Q1101.41 2223.45 1098.33 2220.77 Q1095.27 2218.08 1095.27 2213.06 Q1095.27 2209.75 1097.17 2207.46 Q1099.07 2205.16 1102.45 2204.38 M1100.73 2196.99 Q1100.73 2199.68 1102.4 2201.18 Q1104.09 2202.69 1107.12 2202.69 Q1110.13 2202.69 1111.82 2201.18 Q1113.53 2199.68 1113.53 2196.99 Q1113.53 2194.31 1111.82 2192.8 Q1110.13 2191.3 1107.12 2191.3 Q1104.09 2191.3 1102.4 2192.8 Q1100.73 2194.31 1100.73 2196.99 Z" fill="#000000" fill-rule="nonzero" fill-opacity="1" /><path clip-path="url(#clip930)" d="M1137.28 2191.3 Q1133.67 2191.3 1131.84 2194.86 Q1130.04 2198.4 1130.04 2205.53 Q1130.04 2212.64 1131.84 2216.21 Q1133.67 2219.75 1137.28 2219.75 Q1140.92 2219.75 1142.72 2216.21 Q1144.55 2212.64 1144.55 2205.53 Q1144.55 2198.4 1142.72 2194.86 Q1140.92 2191.3 1137.28 2191.3 M1137.28 2187.59 Q1143.09 2187.59 1146.15 2192.2 Q1149.23 2196.78 1149.23 2205.53 Q1149.23 2214.26 1146.15 2218.87 Q1143.09 2223.45 1137.28 2223.45 Q1131.47 2223.45 1128.4 2218.87 Q1125.34 2214.26 1125.34 2205.53 Q1125.34 2196.78 1128.4 2192.2 Q1131.47 2187.59 1137.28 2187.59 Z" fill="#000000" fill-rule="nonzero" fill-opacity="1" /><path clip-path="url(#clip930)" d="M1185.62 2197.32 L1175.04 2207.94 L1185.62 2218.52 L1182.86 2221.32 L1172.24 2210.7 L1161.61 2221.32 L1158.88 2218.52 L1169.44 2207.94 L1158.88 2197.32 L1161.61 2194.52 L1172.24 2205.14 L1182.86 2194.52 L1185.62 2197.32 Z" fill="#000000" fill-rule="nonzero" fill-opacity="1" /><path clip-path="url(#clip930)" d="M1197.98 2218.84 L1205.62 2218.84 L1205.62 2192.48 L1197.31 2194.15 L1197.31 2189.89 L1205.57 2188.22 L1210.25 2188.22 L1210.25 2218.84 L1217.89 2218.84 L1217.89 2222.78 L1197.98 2222.78 L1197.98 2218.84 Z" fill="#000000" fill-rule="nonzero" fill-opacity="1" /><path clip-path="url(#clip930)" d="M1237.33 2191.3 Q1233.72 2191.3 1231.89 2194.86 Q1230.09 2198.4 1230.09 2205.53 Q1230.09 2212.64 1231.89 2216.21 Q1233.72 2219.75 1237.33 2219.75 Q1240.96 2219.75 1242.77 2216.21 Q1244.6 2212.64 1244.6 2205.53 Q1244.6 2198.4 1242.77 2194.86 Q1240.96 2191.3 1237.33 2191.3 M1237.33 2187.59 Q1243.14 2187.59 1246.2 2192.2 Q1249.27 2196.78 1249.27 2205.53 Q1249.27 2214.26 1246.2 2218.87 Q1243.14 2223.45 1237.33 2223.45 Q1231.52 2223.45 1228.44 2218.87 Q1225.39 2214.26 1225.39 2205.53 Q1225.39 2196.78 1228.44 2192.2 Q1231.52 2187.59 1237.33 2187.59 Z" fill="#000000" fill-rule="nonzero" fill-opacity="1" /><path clip-path="url(#clip930)" d="M1249.27 2181.7 L1273.39 2181.7 L1273.39 2184.89 L1249.27 2184.89 L1249.27 2181.7 Z" fill="#000000" fill-rule="nonzero" fill-opacity="1" /><path clip-path="url(#clip930)" d="M1281.62 2167.29 L1296.54 2167.29 L1296.54 2170.49 L1285.1 2170.49 L1285.1 2177.37 Q1285.93 2177.09 1286.76 2176.96 Q1287.59 2176.81 1288.41 2176.81 Q1293.12 2176.81 1295.86 2179.38 Q1298.61 2181.96 1298.61 2186.36 Q1298.61 2190.89 1295.79 2193.41 Q1292.97 2195.91 1287.83 2195.91 Q1286.06 2195.91 1284.22 2195.61 Q1282.4 2195.31 1280.44 2194.71 L1280.44 2190.89 Q1282.13 2191.81 1283.94 2192.27 Q1285.74 2192.72 1287.76 2192.72 Q1291.01 2192.72 1292.91 2191.01 Q1294.81 2189.29 1294.81 2186.36 Q1294.81 2183.43 1292.91 2181.71 Q1291.01 2180 1287.76 2180 Q1286.23 2180 1284.71 2180.34 Q1283.2 2180.68 1281.62 2181.39 L1281.62 2167.29 Z" fill="#000000" fill-rule="nonzero" fill-opacity="1" /><path clip-path="url(#clip930)" d="M1400.15 2218.84 L1407.79 2218.84 L1407.79 2192.48 L1399.48 2194.15 L1399.48 2189.89 L1407.74 2188.22 L1412.42 2188.22 L1412.42 2218.84 L1420.06 2218.84 L1420.06 2222.78 L1400.15 2222.78 L1400.15 2218.84 Z" fill="#000000" fill-rule="nonzero" fill-opacity="1" /><path clip-path="url(#clip930)" d="M1429.5 2216.9 L1434.39 2216.9 L1434.39 2222.78 L1429.5 2222.78 L1429.5 2216.9 Z" fill="#000000" fill-rule="nonzero" fill-opacity="1" /><path clip-path="url(#clip930)" d="M1454.57 2191.3 Q1450.96 2191.3 1449.13 2194.86 Q1447.32 2198.4 1447.32 2205.53 Q1447.32 2212.64 1449.13 2216.21 Q1450.96 2219.75 1454.57 2219.75 Q1458.2 2219.75 1460.01 2216.21 Q1461.84 2212.64 1461.84 2205.53 Q1461.84 2198.4 1460.01 2194.86 Q1458.2 2191.3 1454.57 2191.3 M1454.57 2187.59 Q1460.38 2187.59 1463.44 2192.2 Q1466.51 2196.78 1466.51 2205.53 Q1466.51 2214.26 1463.44 2218.87 Q1460.38 2223.45 1454.57 2223.45 Q1448.76 2223.45 1445.68 2218.87 Q1442.63 2214.26 1442.63 2205.53 Q1442.63 2196.78 1445.68 2192.2 Q1448.76 2187.59 1454.57 2187.59 Z" fill="#000000" fill-rule="nonzero" fill-opacity="1" /><path clip-path="url(#clip930)" d="M1475.54 2218.84 L1483.18 2218.84 L1483.18 2192.48 L1474.87 2194.15 L1474.87 2189.89 L1483.13 2188.22 L1487.81 2188.22 L1487.81 2218.84 L1495.45 2218.84 L1495.45 2222.78 L1475.54 2222.78 L1475.54 2218.84 Z" fill="#000000" fill-rule="nonzero" fill-opacity="1" /><path clip-path="url(#clip930)" d="M1505.7 2218.84 L1513.34 2218.84 L1513.34 2192.48 L1505.03 2194.15 L1505.03 2189.89 L1513.3 2188.22 L1517.97 2188.22 L1517.97 2218.84 L1525.61 2218.84 L1525.61 2222.78 L1505.7 2222.78 L1505.7 2218.84 Z" fill="#000000" fill-rule="nonzero" fill-opacity="1" /><path clip-path="url(#clip930)" d="M1545.06 2191.3 Q1541.44 2191.3 1539.62 2194.86 Q1537.81 2198.4 1537.81 2205.53 Q1537.81 2212.64 1539.62 2216.21 Q1541.44 2219.75 1545.06 2219.75 Q1548.69 2219.75 1550.5 2216.21 Q1552.32 2212.64 1552.32 2205.53 Q1552.32 2198.4 1550.5 2194.86 Q1548.69 2191.3 1545.06 2191.3 M1545.06 2187.59 Q1550.87 2187.59 1553.92 2192.2 Q1557 2196.78 1557 2205.53 Q1557 2214.26 1553.92 2218.87 Q1550.87 2223.45 1545.06 2223.45 Q1539.25 2223.45 1536.17 2218.87 Q1533.11 2214.26 1533.11 2205.53 Q1533.11 2196.78 1536.17 2192.2 Q1539.25 2187.59 1545.06 2187.59 Z" fill="#000000" fill-rule="nonzero" fill-opacity="1" /><path clip-path="url(#clip930)" d="M1593.39 2197.32 L1582.81 2207.94 L1593.39 2218.52 L1590.63 2221.32 L1580.01 2210.7 L1569.38 2221.32 L1566.65 2218.52 L1577.21 2207.94 L1566.65 2197.32 L1569.38 2194.52 L1580.01 2205.14 L1590.63 2194.52 L1593.39 2197.32 Z" fill="#000000" fill-rule="nonzero" fill-opacity="1" /><path clip-path="url(#clip930)" d="M1605.75 2218.84 L1613.39 2218.84 L1613.39 2192.48 L1605.08 2194.15 L1605.08 2189.89 L1613.34 2188.22 L1618.02 2188.22 L1618.02 2218.84 L1625.66 2218.84 L1625.66 2222.78 L1605.75 2222.78 L1605.75 2218.84 Z" fill="#000000" fill-rule="nonzero" fill-opacity="1" /><path clip-path="url(#clip930)" d="M1645.1 2191.3 Q1641.49 2191.3 1639.66 2194.86 Q1637.86 2198.4 1637.86 2205.53 Q1637.86 2212.64 1639.66 2216.21 Q1641.49 2219.75 1645.1 2219.75 Q1648.74 2219.75 1650.54 2216.21 Q1652.37 2212.64 1652.37 2205.53 Q1652.37 2198.4 1650.54 2194.86 Q1648.74 2191.3 1645.1 2191.3 M1645.1 2187.59 Q1650.91 2187.59 1653.97 2192.2 Q1657.05 2196.78 1657.05 2205.53 Q1657.05 2214.26 1653.97 2218.87 Q1650.91 2223.45 1645.1 2223.45 Q1639.29 2223.45 1636.21 2218.87 Q1633.16 2214.26 1633.16 2205.53 Q1633.16 2196.78 1636.21 2192.2 Q1639.29 2187.59 1645.1 2187.59 Z" fill="#000000" fill-rule="nonzero" fill-opacity="1" /><path clip-path="url(#clip930)" d="M1657.05 2181.7 L1681.16 2181.7 L1681.16 2184.89 L1657.05 2184.89 L1657.05 2181.7 Z" fill="#000000" fill-rule="nonzero" fill-opacity="1" /><path clip-path="url(#clip930)" d="M1689.4 2167.29 L1704.31 2167.29 L1704.31 2170.49 L1692.87 2170.49 L1692.87 2177.37 Q1693.7 2177.09 1694.53 2176.96 Q1695.36 2176.81 1696.19 2176.81 Q1700.89 2176.81 1703.63 2179.38 Q1706.38 2181.96 1706.38 2186.36 Q1706.38 2190.89 1703.56 2193.41 Q1700.74 2195.91 1695.6 2195.91 Q1693.83 2195.91 1691.99 2195.61 Q1690.17 2195.31 1688.21 2194.71 L1688.21 2190.89 Q1689.9 2191.81 1691.71 2192.27 Q1693.51 2192.72 1695.53 2192.72 Q1698.78 2192.72 1700.68 2191.01 Q1702.58 2189.29 1702.58 2186.36 Q1702.58 2183.43 1700.68 2181.71 Q1698.78 2180 1695.53 2180 Q1694 2180 1692.48 2180.34 Q1690.98 2180.68 1689.4 2181.39 L1689.4 2167.29 Z" fill="#000000" fill-rule="nonzero" fill-opacity="1" /><path clip-path="url(#clip930)" d="M1807.92 2218.84 L1815.56 2218.84 L1815.56 2192.48 L1807.25 2194.15 L1807.25 2189.89 L1815.51 2188.22 L1820.19 2188.22 L1820.19 2218.84 L1827.83 2218.84 L1827.83 2222.78 L1807.92 2222.78 L1807.92 2218.84 Z" fill="#000000" fill-rule="nonzero" fill-opacity="1" /><path clip-path="url(#clip930)" d="M1837.27 2216.9 L1842.16 2216.9 L1842.16 2222.78 L1837.27 2222.78 L1837.27 2216.9 Z" fill="#000000" fill-rule="nonzero" fill-opacity="1" /><path clip-path="url(#clip930)" d="M1862.34 2191.3 Q1858.73 2191.3 1856.9 2194.86 Q1855.1 2198.4 1855.1 2205.53 Q1855.1 2212.64 1856.9 2216.21 Q1858.73 2219.75 1862.34 2219.75 Q1865.98 2219.75 1867.78 2216.21 Q1869.61 2212.64 1869.61 2205.53 Q1869.61 2198.4 1867.78 2194.86 Q1865.98 2191.3 1862.34 2191.3 M1862.34 2187.59 Q1868.15 2187.59 1871.21 2192.2 Q1874.29 2196.78 1874.29 2205.53 Q1874.29 2214.26 1871.21 2218.87 Q1868.15 2223.45 1862.34 2223.45 Q1856.53 2223.45 1853.45 2218.87 Q1850.4 2214.26 1850.4 2205.53 Q1850.4 2196.78 1853.45 2192.2 Q1856.53 2187.59 1862.34 2187.59 Z" fill="#000000" fill-rule="nonzero" fill-opacity="1" /><path clip-path="url(#clip930)" d="M1883.31 2218.84 L1890.95 2218.84 L1890.95 2192.48 L1882.64 2194.15 L1882.64 2189.89 L1890.91 2188.22 L1895.58 2188.22 L1895.58 2218.84 L1903.22 2218.84 L1903.22 2222.78 L1883.31 2222.78 L1883.31 2218.84 Z" fill="#000000" fill-rule="nonzero" fill-opacity="1" /><path clip-path="url(#clip930)" d="M1925.51 2192.29 L1913.71 2210.74 L1925.51 2210.74 L1925.51 2192.29 M1924.29 2188.22 L1930.17 2188.22 L1930.17 2210.74 L1935.1 2210.74 L1935.1 2214.63 L1930.17 2214.63 L1930.17 2222.78 L1925.51 2222.78 L1925.51 2214.63 L1909.91 2214.63 L1909.91 2210.12 L1924.29 2188.22 Z" fill="#000000" fill-rule="nonzero" fill-opacity="1" /><path clip-path="url(#clip930)" d="M1952.83 2191.3 Q1949.22 2191.3 1947.39 2194.86 Q1945.58 2198.4 1945.58 2205.53 Q1945.58 2212.64 1947.39 2216.21 Q1949.22 2219.75 1952.83 2219.75 Q1956.46 2219.75 1958.27 2216.21 Q1960.1 2212.64 1960.1 2205.53 Q1960.1 2198.4 1958.27 2194.86 Q1956.46 2191.3 1952.83 2191.3 M1952.83 2187.59 Q1958.64 2187.59 1961.69 2192.2 Q1964.77 2196.78 1964.77 2205.53 Q1964.77 2214.26 1961.69 2218.87 Q1958.64 2223.45 1952.83 2223.45 Q1947.02 2223.45 1943.94 2218.87 Q1940.88 2214.26 1940.88 2205.53 Q1940.88 2196.78 1943.94 2192.2 Q1947.02 2187.59 1952.83 2187.59 Z" fill="#000000" fill-rule="nonzero" fill-opacity="1" /><path clip-path="url(#clip930)" d="M2001.16 2197.32 L1990.58 2207.94 L2001.16 2218.52 L1998.41 2221.32 L1987.78 2210.7 L1977.16 2221.32 L1974.42 2218.52 L1984.98 2207.94 L1974.42 2197.32 L1977.16 2194.52 L1987.78 2205.14 L1998.41 2194.52 L2001.16 2197.32 Z" fill="#000000" fill-rule="nonzero" fill-opacity="1" /><path clip-path="url(#clip930)" d="M2013.52 2218.84 L2021.16 2218.84 L2021.16 2192.48 L2012.85 2194.15 L2012.85 2189.89 L2021.11 2188.22 L2025.79 2188.22 L2025.79 2218.84 L2033.43 2218.84 L2033.43 2222.78 L2013.52 2222.78 L2013.52 2218.84 Z" fill="#000000" fill-rule="nonzero" fill-opacity="1" /><path clip-path="url(#clip930)" d="M2052.87 2191.3 Q2049.26 2191.3 2047.43 2194.86 Q2045.63 2198.4 2045.63 2205.53 Q2045.63 2212.64 2047.43 2216.21 Q2049.26 2219.75 2052.87 2219.75 Q2056.51 2219.75 2058.31 2216.21 Q2060.14 2212.64 2060.14 2205.53 Q2060.14 2198.4 2058.31 2194.86 Q2056.51 2191.3 2052.87 2191.3 M2052.87 2187.59 Q2058.68 2187.59 2061.74 2192.2 Q2064.82 2196.78 2064.82 2205.53 Q2064.82 2214.26 2061.74 2218.87 Q2058.68 2223.45 2052.87 2223.45 Q2047.06 2223.45 2043.98 2218.87 Q2040.93 2214.26 2040.93 2205.53 Q2040.93 2196.78 2043.98 2192.2 Q2047.06 2187.59 2052.87 2187.59 Z" fill="#000000" fill-rule="nonzero" fill-opacity="1" /><path clip-path="url(#clip930)" d="M2064.82 2181.7 L2088.93 2181.7 L2088.93 2184.89 L2064.82 2184.89 L2064.82 2181.7 Z" fill="#000000" fill-rule="nonzero" fill-opacity="1" /><path clip-path="url(#clip930)" d="M2097.17 2167.29 L2112.08 2167.29 L2112.08 2170.49 L2100.65 2170.49 L2100.65 2177.37 Q2101.47 2177.09 2102.3 2176.96 Q2103.13 2176.81 2103.96 2176.81 Q2108.66 2176.81 2111.4 2179.38 Q2114.15 2181.96 2114.15 2186.36 Q2114.15 2190.89 2111.33 2193.41 Q2108.51 2195.91 2103.37 2195.91 Q2101.61 2195.91 2099.76 2195.61 Q2097.94 2195.31 2095.98 2194.71 L2095.98 2190.89 Q2097.67 2191.81 2099.48 2192.27 Q2101.29 2192.72 2103.3 2192.72 Q2106.55 2192.72 2108.45 2191.01 Q2110.35 2189.29 2110.35 2186.36 Q2110.35 2183.43 2108.45 2181.71 Q2106.55 2180 2103.3 2180 Q2101.77 2180 2100.25 2180.34 Q2098.75 2180.68 2097.17 2181.39 L2097.17 2167.29 Z" fill="#000000" fill-rule="nonzero" fill-opacity="1" /><path clip-path="url(#clip930)" d="M576.526 2286.42 Q578.594 2287.12 580.536 2289.42 Q582.509 2291.71 584.483 2295.72 L591.008 2308.7 L584.101 2308.7 L578.022 2296.51 Q575.666 2291.74 573.438 2290.18 Q571.242 2288.62 567.423 2288.62 L560.42 2288.62 L560.42 2308.7 L553.991 2308.7 L553.991 2261.18 L568.505 2261.18 Q576.653 2261.18 580.663 2264.59 Q584.674 2268 584.674 2274.87 Q584.674 2279.36 582.573 2282.32 Q580.504 2285.28 576.526 2286.42 M560.42 2266.47 L560.42 2283.34 L568.505 2283.34 Q573.152 2283.34 575.507 2281.2 Q577.894 2279.04 577.894 2274.87 Q577.894 2270.7 575.507 2268.6 Q573.152 2266.47 568.505 2266.47 L560.42 2266.47 Z" fill="#000000" fill-rule="nonzero" fill-opacity="1" /><path clip-path="url(#clip930)" d="M626.592 2289.42 L626.592 2292.28 L599.665 2292.28 Q600.047 2298.33 603.293 2301.51 Q606.572 2304.66 612.396 2304.66 Q615.77 2304.66 618.921 2303.83 Q622.104 2303.01 625.223 2301.35 L625.223 2306.89 Q622.072 2308.23 618.762 2308.93 Q615.452 2309.63 612.046 2309.63 Q603.516 2309.63 598.519 2304.66 Q593.554 2299.7 593.554 2291.23 Q593.554 2282.48 598.264 2277.35 Q603.007 2272.2 611.028 2272.2 Q618.221 2272.2 622.39 2276.84 Q626.592 2281.46 626.592 2289.42 M620.735 2287.7 Q620.672 2282.89 618.03 2280.03 Q615.42 2277.16 611.091 2277.16 Q606.19 2277.16 603.23 2279.93 Q600.301 2282.7 599.856 2287.73 L620.735 2287.7 Z" fill="#000000" fill-rule="nonzero" fill-opacity="1" /><path clip-path="url(#clip930)" d="M661.858 2274.42 L661.858 2279.9 Q659.375 2278.53 656.861 2277.86 Q654.378 2277.16 651.832 2277.16 Q646.135 2277.16 642.984 2280.79 Q639.833 2284.39 639.833 2290.91 Q639.833 2297.44 642.984 2301.07 Q646.135 2304.66 651.832 2304.66 Q654.378 2304.66 656.861 2303.99 Q659.375 2303.29 661.858 2301.92 L661.858 2307.34 Q659.407 2308.48 656.765 2309.05 Q654.155 2309.63 651.195 2309.63 Q643.143 2309.63 638.4 2304.57 Q633.658 2299.51 633.658 2290.91 Q633.658 2282.19 638.432 2277.19 Q643.238 2272.2 651.577 2272.2 Q654.283 2272.2 656.861 2272.77 Q659.439 2273.31 661.858 2274.42 Z" fill="#000000" fill-rule="nonzero" fill-opacity="1" /><path clip-path="url(#clip930)" d="M672.043 2273.06 L677.899 2273.06 L677.899 2308.7 L672.043 2308.7 L672.043 2273.06 M672.043 2259.18 L677.899 2259.18 L677.899 2266.59 L672.043 2266.59 L672.043 2259.18 Z" fill="#000000" fill-rule="nonzero" fill-opacity="1" /><path clip-path="url(#clip930)" d="M695.819 2303.36 L695.819 2322.26 L689.931 2322.26 L689.931 2273.06 L695.819 2273.06 L695.819 2278.47 Q697.665 2275.28 700.466 2273.76 Q703.299 2272.2 707.214 2272.2 Q713.707 2272.2 717.749 2277.35 Q721.823 2282.51 721.823 2290.91 Q721.823 2299.31 717.749 2304.47 Q713.707 2309.63 707.214 2309.63 Q703.299 2309.63 700.466 2308.1 Q697.665 2306.54 695.819 2303.36 M715.744 2290.91 Q715.744 2284.45 713.07 2280.79 Q710.428 2277.1 705.781 2277.1 Q701.134 2277.1 698.461 2280.79 Q695.819 2284.45 695.819 2290.91 Q695.819 2297.37 698.461 2301.07 Q701.134 2304.73 705.781 2304.73 Q710.428 2304.73 713.07 2301.07 Q715.744 2297.37 715.744 2290.91 Z" fill="#000000" fill-rule="nonzero" fill-opacity="1" /><path clip-path="url(#clip930)" d="M752.187 2278.53 Q751.201 2277.96 750.023 2277.7 Q748.877 2277.42 747.477 2277.42 Q742.511 2277.42 739.838 2280.66 Q737.196 2283.88 737.196 2289.93 L737.196 2308.7 L731.308 2308.7 L731.308 2273.06 L737.196 2273.06 L737.196 2278.59 Q739.042 2275.35 742.002 2273.79 Q744.962 2272.2 749.195 2272.2 Q749.8 2272.2 750.532 2272.29 Q751.264 2272.36 752.155 2272.52 L752.187 2278.53 Z" fill="#000000" fill-rule="nonzero" fill-opacity="1" /><path clip-path="url(#clip930)" d="M770.711 2277.16 Q766.001 2277.16 763.264 2280.85 Q760.526 2284.51 760.526 2290.91 Q760.526 2297.31 763.232 2301 Q765.969 2304.66 770.711 2304.66 Q775.39 2304.66 778.127 2300.97 Q780.865 2297.28 780.865 2290.91 Q780.865 2284.58 778.127 2280.89 Q775.39 2277.16 770.711 2277.16 M770.711 2272.2 Q778.35 2272.2 782.711 2277.16 Q787.071 2282.13 787.071 2290.91 Q787.071 2299.66 782.711 2304.66 Q778.35 2309.63 770.711 2309.63 Q763.041 2309.63 758.68 2304.66 Q754.352 2299.66 754.352 2290.91 Q754.352 2282.13 758.68 2277.16 Q763.041 2272.2 770.711 2272.2 Z" fill="#000000" fill-rule="nonzero" fill-opacity="1" /><path clip-path="url(#clip930)" d="M822.433 2274.42 L822.433 2279.9 Q819.95 2278.53 817.436 2277.86 Q814.953 2277.16 812.407 2277.16 Q806.71 2277.16 803.558 2280.79 Q800.407 2284.39 800.407 2290.91 Q800.407 2297.44 803.558 2301.07 Q806.71 2304.66 812.407 2304.66 Q814.953 2304.66 817.436 2303.99 Q819.95 2303.29 822.433 2301.92 L822.433 2307.34 Q819.982 2308.48 817.34 2309.05 Q814.73 2309.63 811.77 2309.63 Q803.718 2309.63 798.975 2304.57 Q794.233 2299.51 794.233 2290.91 Q794.233 2282.19 799.007 2277.19 Q803.813 2272.2 812.152 2272.2 Q814.858 2272.2 817.436 2272.77 Q820.014 2273.31 822.433 2274.42 Z" fill="#000000" fill-rule="nonzero" fill-opacity="1" /><path clip-path="url(#clip930)" d="M848.819 2290.78 Q841.721 2290.78 838.984 2292.41 Q836.246 2294.03 836.246 2297.95 Q836.246 2301.07 838.283 2302.91 Q840.352 2304.73 843.885 2304.73 Q848.755 2304.73 851.683 2301.29 Q854.643 2297.82 854.643 2292.09 L854.643 2290.78 L848.819 2290.78 M860.5 2288.37 L860.5 2308.7 L854.643 2308.7 L854.643 2303.29 Q852.638 2306.54 849.646 2308.1 Q846.654 2309.63 842.326 2309.63 Q836.851 2309.63 833.605 2306.57 Q830.39 2303.48 830.39 2298.33 Q830.39 2292.31 834.4 2289.26 Q838.443 2286.2 846.432 2286.2 L854.643 2286.2 L854.643 2285.63 Q854.643 2281.59 851.97 2279.39 Q849.328 2277.16 844.522 2277.16 Q841.466 2277.16 838.57 2277.89 Q835.673 2278.63 833 2280.09 L833 2274.68 Q836.215 2273.44 839.238 2272.83 Q842.262 2272.2 845.127 2272.2 Q852.861 2272.2 856.68 2276.21 Q860.5 2280.22 860.5 2288.37 Z" fill="#000000" fill-rule="nonzero" fill-opacity="1" /><path clip-path="url(#clip930)" d="M872.563 2259.18 L878.419 2259.18 L878.419 2308.7 L872.563 2308.7 L872.563 2259.18 Z" fill="#000000" fill-rule="nonzero" fill-opacity="1" /><path clip-path="url(#clip930)" d="M925.207 2277.16 Q920.497 2277.16 917.759 2280.85 Q915.022 2284.51 915.022 2290.91 Q915.022 2297.31 917.727 2301 Q920.465 2304.66 925.207 2304.66 Q929.886 2304.66 932.623 2300.97 Q935.36 2297.28 935.36 2290.91 Q935.36 2284.58 932.623 2280.89 Q929.886 2277.16 925.207 2277.16 M925.207 2272.2 Q932.846 2272.2 937.207 2277.16 Q941.567 2282.13 941.567 2290.91 Q941.567 2299.66 937.207 2304.66 Q932.846 2309.63 925.207 2309.63 Q917.536 2309.63 913.176 2304.66 Q908.847 2299.66 908.847 2290.91 Q908.847 2282.13 913.176 2277.16 Q917.536 2272.2 925.207 2272.2 Z" fill="#000000" fill-rule="nonzero" fill-opacity="1" /><path clip-path="url(#clip930)" d="M969.321 2259.18 L969.321 2264.05 L963.72 2264.05 Q960.569 2264.05 959.327 2265.32 Q958.118 2266.59 958.118 2269.91 L958.118 2273.06 L967.762 2273.06 L967.762 2277.61 L958.118 2277.61 L958.118 2308.7 L952.23 2308.7 L952.23 2277.61 L946.628 2277.61 L946.628 2273.06 L952.23 2273.06 L952.23 2270.57 Q952.23 2264.62 954.999 2261.92 Q957.768 2259.18 963.783 2259.18 L969.321 2259.18 Z" fill="#000000" fill-rule="nonzero" fill-opacity="1" /><path clip-path="url(#clip930)" d="M1011.08 2267.52 L1002.36 2291.17 L1019.83 2291.17 L1011.08 2267.52 M1007.45 2261.18 L1014.74 2261.18 L1032.85 2308.7 L1026.17 2308.7 L1021.84 2296.51 L1000.42 2296.51 L996.089 2308.7 L989.31 2308.7 L1007.45 2261.18 Z" fill="#000000" fill-rule="nonzero" fill-opacity="1" /><path clip-path="url(#clip930)" d="M1065.13 2290.91 Q1065.13 2284.45 1062.45 2280.79 Q1059.81 2277.1 1055.16 2277.1 Q1050.52 2277.1 1047.84 2280.79 Q1045.2 2284.45 1045.2 2290.91 Q1045.2 2297.37 1047.84 2301.07 Q1050.52 2304.73 1055.16 2304.73 Q1059.81 2304.73 1062.45 2301.07 Q1065.13 2297.37 1065.13 2290.91 M1045.2 2278.47 Q1047.05 2275.28 1049.85 2273.76 Q1052.68 2272.2 1056.6 2272.2 Q1063.09 2272.2 1067.13 2277.35 Q1071.2 2282.51 1071.2 2290.91 Q1071.2 2299.31 1067.13 2304.47 Q1063.09 2309.63 1056.6 2309.63 Q1052.68 2309.63 1049.85 2308.1 Q1047.05 2306.54 1045.2 2303.36 L1045.2 2308.7 L1039.31 2308.7 L1039.31 2259.18 L1045.2 2259.18 L1045.2 2278.47 Z" fill="#000000" fill-rule="nonzero" fill-opacity="1" /><path clip-path="url(#clip930)" d="M1103.64 2274.11 L1103.64 2279.64 Q1101.16 2278.37 1098.48 2277.73 Q1095.81 2277.1 1092.94 2277.1 Q1088.58 2277.1 1086.39 2278.44 Q1084.22 2279.77 1084.22 2282.45 Q1084.22 2284.48 1085.78 2285.66 Q1087.34 2286.81 1092.05 2287.86 L1094.06 2288.3 Q1100.3 2289.64 1102.91 2292.09 Q1105.55 2294.51 1105.55 2298.87 Q1105.55 2303.83 1101.6 2306.73 Q1097.69 2309.63 1090.81 2309.63 Q1087.95 2309.63 1084.83 2309.05 Q1081.74 2308.51 1078.3 2307.4 L1078.3 2301.35 Q1081.55 2303.04 1084.7 2303.9 Q1087.85 2304.73 1090.94 2304.73 Q1095.08 2304.73 1097.3 2303.33 Q1099.53 2301.89 1099.53 2299.31 Q1099.53 2296.93 1097.91 2295.65 Q1096.32 2294.38 1090.87 2293.2 L1088.84 2292.73 Q1083.39 2291.58 1080.98 2289.23 Q1078.56 2286.84 1078.56 2282.7 Q1078.56 2277.67 1082.12 2274.93 Q1085.69 2272.2 1092.24 2272.2 Q1095.49 2272.2 1098.35 2272.67 Q1101.22 2273.15 1103.64 2274.11 Z" fill="#000000" fill-rule="nonzero" fill-opacity="1" /><path clip-path="url(#clip930)" d="M1128.69 2277.16 Q1123.98 2277.16 1121.24 2280.85 Q1118.5 2284.51 1118.5 2290.91 Q1118.5 2297.31 1121.21 2301 Q1123.94 2304.66 1128.69 2304.66 Q1133.37 2304.66 1136.1 2300.97 Q1138.84 2297.28 1138.84 2290.91 Q1138.84 2284.58 1136.1 2280.89 Q1133.37 2277.16 1128.69 2277.16 M1128.69 2272.2 Q1136.33 2272.2 1140.69 2277.16 Q1145.05 2282.13 1145.05 2290.91 Q1145.05 2299.66 1140.69 2304.66 Q1136.33 2309.63 1128.69 2309.63 Q1121.02 2309.63 1116.66 2304.66 Q1112.33 2299.66 1112.33 2290.91 Q1112.33 2282.13 1116.66 2277.16 Q1121.02 2272.2 1128.69 2272.2 Z" fill="#000000" fill-rule="nonzero" fill-opacity="1" /><path clip-path="url(#clip930)" d="M1154.75 2259.18 L1160.61 2259.18 L1160.61 2308.7 L1154.75 2308.7 L1154.75 2259.18 Z" fill="#000000" fill-rule="nonzero" fill-opacity="1" /><path clip-path="url(#clip930)" d="M1172.26 2294.64 L1172.26 2273.06 L1178.12 2273.06 L1178.12 2294.41 Q1178.12 2299.47 1180.09 2302.02 Q1182.06 2304.53 1186.01 2304.53 Q1190.75 2304.53 1193.49 2301.51 Q1196.26 2298.49 1196.26 2293.27 L1196.26 2273.06 L1202.12 2273.06 L1202.12 2308.7 L1196.26 2308.7 L1196.26 2303.23 Q1194.13 2306.48 1191.29 2308.07 Q1188.49 2309.63 1184.77 2309.63 Q1178.63 2309.63 1175.44 2305.81 Q1172.26 2301.99 1172.26 2294.64 M1187 2272.2 L1187 2272.2 Z" fill="#000000" fill-rule="nonzero" fill-opacity="1" /><path clip-path="url(#clip930)" d="M1219.97 2262.93 L1219.97 2273.06 L1232.03 2273.06 L1232.03 2277.61 L1219.97 2277.61 L1219.97 2296.96 Q1219.97 2301.32 1221.15 2302.56 Q1222.36 2303.8 1226.02 2303.8 L1232.03 2303.8 L1232.03 2308.7 L1226.02 2308.7 Q1219.24 2308.7 1216.66 2306.19 Q1214.08 2303.64 1214.08 2296.96 L1214.08 2277.61 L1209.79 2277.61 L1209.79 2273.06 L1214.08 2273.06 L1214.08 2262.93 L1219.97 2262.93 Z" fill="#000000" fill-rule="nonzero" fill-opacity="1" /><path clip-path="url(#clip930)" d="M1270.23 2289.42 L1270.23 2292.28 L1243.3 2292.28 Q1243.68 2298.33 1246.93 2301.51 Q1250.21 2304.66 1256.03 2304.66 Q1259.41 2304.66 1262.56 2303.83 Q1265.74 2303.01 1268.86 2301.35 L1268.86 2306.89 Q1265.71 2308.23 1262.4 2308.93 Q1259.09 2309.63 1255.68 2309.63 Q1247.15 2309.63 1242.16 2304.66 Q1237.19 2299.7 1237.19 2291.23 Q1237.19 2282.48 1241.9 2277.35 Q1246.64 2272.2 1254.66 2272.2 Q1261.86 2272.2 1266.03 2276.84 Q1270.23 2281.46 1270.23 2289.42 M1264.37 2287.7 Q1264.31 2282.89 1261.67 2280.03 Q1259.06 2277.16 1254.73 2277.16 Q1249.83 2277.16 1246.87 2279.93 Q1243.94 2282.7 1243.49 2287.73 L1264.37 2287.7 Z" fill="#000000" fill-rule="nonzero" fill-opacity="1" /><path clip-path="url(#clip930)" d="M1333.22 2301.92 L1333.22 2289.16 L1322.71 2289.16 L1322.71 2283.88 L1339.58 2283.88 L1339.58 2304.28 Q1335.86 2306.92 1331.37 2308.29 Q1326.88 2309.63 1321.79 2309.63 Q1310.65 2309.63 1304.35 2303.13 Q1298.08 2296.61 1298.08 2284.99 Q1298.08 2273.34 1304.35 2266.85 Q1310.65 2260.32 1321.79 2260.32 Q1326.44 2260.32 1330.61 2261.47 Q1334.81 2262.62 1338.34 2264.84 L1338.34 2271.69 Q1334.78 2268.66 1330.77 2267.14 Q1326.76 2265.61 1322.33 2265.61 Q1313.61 2265.61 1309.22 2270.48 Q1304.86 2275.35 1304.86 2284.99 Q1304.86 2294.6 1309.22 2299.47 Q1313.61 2304.34 1322.33 2304.34 Q1325.74 2304.34 1328.41 2303.77 Q1331.08 2303.17 1333.22 2301.92 Z" fill="#000000" fill-rule="nonzero" fill-opacity="1" /><path clip-path="url(#clip930)" d="M1367.27 2290.78 Q1360.18 2290.78 1357.44 2292.41 Q1354.7 2294.03 1354.7 2297.95 Q1354.7 2301.07 1356.74 2302.91 Q1358.81 2304.73 1362.34 2304.73 Q1367.21 2304.73 1370.14 2301.29 Q1373.1 2297.82 1373.1 2292.09 L1373.1 2290.78 L1367.27 2290.78 M1378.95 2288.37 L1378.95 2308.7 L1373.1 2308.7 L1373.1 2303.29 Q1371.09 2306.54 1368.1 2308.1 Q1365.11 2309.63 1360.78 2309.63 Q1355.31 2309.63 1352.06 2306.57 Q1348.84 2303.48 1348.84 2298.33 Q1348.84 2292.31 1352.86 2289.26 Q1356.9 2286.2 1364.89 2286.2 L1373.1 2286.2 L1373.1 2285.63 Q1373.1 2281.59 1370.42 2279.39 Q1367.78 2277.16 1362.98 2277.16 Q1359.92 2277.16 1357.02 2277.89 Q1354.13 2278.63 1351.45 2280.09 L1351.45 2274.68 Q1354.67 2273.44 1357.69 2272.83 Q1360.72 2272.2 1363.58 2272.2 Q1371.32 2272.2 1375.14 2276.21 Q1378.95 2280.22 1378.95 2288.37 Z" fill="#000000" fill-rule="nonzero" fill-opacity="1" /><path clip-path="url(#clip930)" d="M1413.74 2274.11 L1413.74 2279.64 Q1411.26 2278.37 1408.59 2277.73 Q1405.91 2277.1 1403.05 2277.1 Q1398.69 2277.1 1396.49 2278.44 Q1394.33 2279.77 1394.33 2282.45 Q1394.33 2284.48 1395.89 2285.66 Q1397.45 2286.81 1402.16 2287.86 L1404.16 2288.3 Q1410.4 2289.64 1413.01 2292.09 Q1415.65 2294.51 1415.65 2298.87 Q1415.65 2303.83 1411.71 2306.73 Q1407.79 2309.63 1400.92 2309.63 Q1398.05 2309.63 1394.93 2309.05 Q1391.85 2308.51 1388.41 2307.4 L1388.41 2301.35 Q1391.65 2303.04 1394.81 2303.9 Q1397.96 2304.73 1401.04 2304.73 Q1405.18 2304.73 1407.41 2303.33 Q1409.64 2301.89 1409.64 2299.31 Q1409.64 2296.93 1408.01 2295.65 Q1406.42 2294.38 1400.98 2293.2 L1398.94 2292.73 Q1393.5 2291.58 1391.08 2289.23 Q1388.66 2286.84 1388.66 2282.7 Q1388.66 2277.67 1392.23 2274.93 Q1395.79 2272.2 1402.35 2272.2 Q1405.6 2272.2 1408.46 2272.67 Q1411.32 2273.15 1413.74 2274.11 Z" fill="#000000" fill-rule="nonzero" fill-opacity="1" /><path clip-path="url(#clip930)" d="M1452.38 2266.47 L1452.38 2284.32 L1460.47 2284.32 Q1464.96 2284.32 1467.41 2282 Q1469.86 2279.68 1469.86 2275.38 Q1469.86 2271.11 1467.41 2268.79 Q1464.96 2266.47 1460.47 2266.47 L1452.38 2266.47 M1445.95 2261.18 L1460.47 2261.18 Q1468.46 2261.18 1472.53 2264.81 Q1476.64 2268.41 1476.64 2275.38 Q1476.64 2282.41 1472.53 2286.01 Q1468.46 2289.61 1460.47 2289.61 L1452.38 2289.61 L1452.38 2308.7 L1445.95 2308.7 L1445.95 2261.18 Z" fill="#000000" fill-rule="nonzero" fill-opacity="1" /><path clip-path="url(#clip930)" d="M1504.52 2278.53 Q1503.53 2277.96 1502.35 2277.7 Q1501.21 2277.42 1499.81 2277.42 Q1494.84 2277.42 1492.17 2280.66 Q1489.53 2283.88 1489.53 2289.93 L1489.53 2308.7 L1483.64 2308.7 L1483.64 2273.06 L1489.53 2273.06 L1489.53 2278.59 Q1491.37 2275.35 1494.33 2273.79 Q1497.29 2272.2 1501.53 2272.2 Q1502.13 2272.2 1502.86 2272.29 Q1503.6 2272.36 1504.49 2272.52 L1504.52 2278.53 Z" fill="#000000" fill-rule="nonzero" fill-opacity="1" /><path clip-path="url(#clip930)" d="M1539.72 2289.42 L1539.72 2292.28 L1512.79 2292.28 Q1513.18 2298.33 1516.42 2301.51 Q1519.7 2304.66 1525.53 2304.66 Q1528.9 2304.66 1532.05 2303.83 Q1535.23 2303.01 1538.35 2301.35 L1538.35 2306.89 Q1535.2 2308.23 1531.89 2308.93 Q1528.58 2309.63 1525.17 2309.63 Q1516.64 2309.63 1511.65 2304.66 Q1506.68 2299.7 1506.68 2291.23 Q1506.68 2282.48 1511.39 2277.35 Q1516.14 2272.2 1524.16 2272.2 Q1531.35 2272.2 1535.52 2276.84 Q1539.72 2281.46 1539.72 2289.42 M1533.86 2287.7 Q1533.8 2282.89 1531.16 2280.03 Q1528.55 2277.16 1524.22 2277.16 Q1519.32 2277.16 1516.36 2279.93 Q1513.43 2282.7 1512.98 2287.73 L1533.86 2287.7 Z" fill="#000000" fill-rule="nonzero" fill-opacity="1" /><path clip-path="url(#clip930)" d="M1572.06 2274.11 L1572.06 2279.64 Q1569.58 2278.37 1566.9 2277.73 Q1564.23 2277.1 1561.36 2277.1 Q1557 2277.1 1554.81 2278.44 Q1552.64 2279.77 1552.64 2282.45 Q1552.64 2284.48 1554.2 2285.66 Q1555.76 2286.81 1560.47 2287.86 L1562.48 2288.3 Q1568.72 2289.64 1571.33 2292.09 Q1573.97 2294.51 1573.97 2298.87 Q1573.97 2303.83 1570.02 2306.73 Q1566.11 2309.63 1559.23 2309.63 Q1556.37 2309.63 1553.25 2309.05 Q1550.16 2308.51 1546.72 2307.4 L1546.72 2301.35 Q1549.97 2303.04 1553.12 2303.9 Q1556.27 2304.73 1559.36 2304.73 Q1563.5 2304.73 1565.72 2303.33 Q1567.95 2301.89 1567.95 2299.31 Q1567.95 2296.93 1566.33 2295.65 Q1564.74 2294.38 1559.3 2293.2 L1557.26 2292.73 Q1551.82 2291.58 1549.4 2289.23 Q1546.98 2286.84 1546.98 2282.7 Q1546.98 2277.67 1550.54 2274.93 Q1554.11 2272.2 1560.66 2272.2 Q1563.91 2272.2 1566.77 2272.67 Q1569.64 2273.15 1572.06 2274.11 Z" fill="#000000" fill-rule="nonzero" fill-opacity="1" /><path clip-path="url(#clip930)" d="M1606.02 2274.11 L1606.02 2279.64 Q1603.54 2278.37 1600.86 2277.73 Q1598.19 2277.1 1595.33 2277.1 Q1590.96 2277.1 1588.77 2278.44 Q1586.6 2279.77 1586.6 2282.45 Q1586.6 2284.48 1588.16 2285.66 Q1589.72 2286.81 1594.43 2287.86 L1596.44 2288.3 Q1602.68 2289.64 1605.29 2292.09 Q1607.93 2294.51 1607.93 2298.87 Q1607.93 2303.83 1603.98 2306.73 Q1600.07 2309.63 1593.19 2309.63 Q1590.33 2309.63 1587.21 2309.05 Q1584.12 2308.51 1580.68 2307.4 L1580.68 2301.35 Q1583.93 2303.04 1587.08 2303.9 Q1590.23 2304.73 1593.32 2304.73 Q1597.46 2304.73 1599.69 2303.33 Q1601.91 2301.89 1601.91 2299.31 Q1601.91 2296.93 1600.29 2295.65 Q1598.7 2294.38 1593.26 2293.2 L1591.22 2292.73 Q1585.78 2291.58 1583.36 2289.23 Q1580.94 2286.84 1580.94 2282.7 Q1580.94 2277.67 1584.5 2274.93 Q1588.07 2272.2 1594.62 2272.2 Q1597.87 2272.2 1600.74 2272.67 Q1603.6 2273.15 1606.02 2274.11 Z" fill="#000000" fill-rule="nonzero" fill-opacity="1" /><path clip-path="url(#clip930)" d="M1616.65 2294.64 L1616.65 2273.06 L1622.51 2273.06 L1622.51 2294.41 Q1622.51 2299.47 1624.48 2302.02 Q1626.45 2304.53 1630.4 2304.53 Q1635.14 2304.53 1637.88 2301.51 Q1640.65 2298.49 1640.65 2293.27 L1640.65 2273.06 L1646.51 2273.06 L1646.51 2308.7 L1640.65 2308.7 L1640.65 2303.23 Q1638.52 2306.48 1635.68 2308.07 Q1632.88 2309.63 1629.16 2309.63 Q1623.02 2309.63 1619.83 2305.81 Q1616.65 2301.99 1616.65 2294.64 M1631.39 2272.2 L1631.39 2272.2 Z" fill="#000000" fill-rule="nonzero" fill-opacity="1" /><path clip-path="url(#clip930)" d="M1679.23 2278.53 Q1678.24 2277.96 1677.06 2277.7 Q1675.91 2277.42 1674.51 2277.42 Q1669.55 2277.42 1666.88 2280.66 Q1664.23 2283.88 1664.23 2289.93 L1664.23 2308.7 L1658.35 2308.7 L1658.35 2273.06 L1664.23 2273.06 L1664.23 2278.59 Q1666.08 2275.35 1669.04 2273.79 Q1672 2272.2 1676.23 2272.2 Q1676.84 2272.2 1677.57 2272.29 Q1678.3 2272.36 1679.19 2272.52 L1679.23 2278.53 Z" fill="#000000" fill-rule="nonzero" fill-opacity="1" /><path clip-path="url(#clip930)" d="M1714.43 2289.42 L1714.43 2292.28 L1687.5 2292.28 Q1687.88 2298.33 1691.13 2301.51 Q1694.41 2304.66 1700.23 2304.66 Q1703.61 2304.66 1706.76 2303.83 Q1709.94 2303.01 1713.06 2301.35 L1713.06 2306.89 Q1709.91 2308.23 1706.6 2308.93 Q1703.29 2309.63 1699.88 2309.63 Q1691.35 2309.63 1686.35 2304.66 Q1681.39 2299.7 1681.39 2291.23 Q1681.39 2282.48 1686.1 2277.35 Q1690.84 2272.2 1698.86 2272.2 Q1706.06 2272.2 1710.23 2276.84 Q1714.43 2281.46 1714.43 2289.42 M1708.57 2287.7 Q1708.51 2282.89 1705.87 2280.03 Q1703.26 2277.16 1698.93 2277.16 Q1694.03 2277.16 1691.07 2279.93 Q1688.14 2282.7 1687.69 2287.73 L1708.57 2287.7 Z" fill="#000000" fill-rule="nonzero" fill-opacity="1" /><path clip-path="url(#clip930)" d="M1785.7 2273.6 Q1785.7 2277.21 1783.03 2280.52 Q1780.39 2283.84 1776.07 2285.87 Q1771.79 2287.87 1767.18 2287.87 L1755.98 2287.87 L1751.89 2304.36 Q1751.85 2304.45 1751.76 2304.87 Q1751.66 2305.26 1751.66 2305.48 Q1751.66 2306.29 1752.66 2306.48 Q1753.69 2306.68 1755.98 2306.68 Q1757.46 2306.68 1757.68 2306.93 Q1757.81 2307.09 1757.81 2307.38 Q1757.81 2307.83 1757.68 2308.16 Q1757.55 2308.45 1757.3 2308.54 Q1757.07 2308.64 1756.91 2308.67 Q1756.75 2308.7 1756.49 2308.7 Q1755.82 2308.7 1754.37 2308.64 Q1752.95 2308.58 1752.21 2308.58 L1747.99 2308.51 L1739.62 2308.7 Q1738.62 2308.7 1738.62 2307.9 Q1738.62 2307.29 1738.87 2307.03 Q1739.13 2306.74 1739.42 2306.71 Q1739.71 2306.68 1740.45 2306.68 Q1742.06 2306.68 1743.03 2306.58 Q1744 2306.48 1744.61 2306.35 Q1745.25 2306.19 1745.57 2305.74 Q1745.93 2305.29 1746.09 2304.9 Q1746.25 2304.49 1746.48 2303.55 L1755.3 2268.12 Q1755.56 2267.06 1755.56 2266.9 Q1755.56 2266.35 1755.24 2266.16 Q1754.95 2265.93 1754.11 2265.84 Q1752.5 2265.71 1751.27 2265.71 Q1750.47 2265.71 1750.15 2265.68 Q1749.86 2265.64 1749.6 2265.48 Q1749.37 2265.29 1749.37 2264.9 Q1749.37 2264.29 1749.63 2264.03 Q1749.92 2263.74 1750.24 2263.71 Q1750.57 2263.65 1751.34 2263.65 L1772.72 2263.65 Q1778.87 2263.65 1782.29 2266.58 Q1785.7 2269.51 1785.7 2273.6 M1779.58 2272.02 Q1779.58 2265.71 1770.6 2265.71 L1764.29 2265.71 Q1762.19 2265.71 1761.68 2266.1 Q1761.16 2266.45 1760.71 2268.22 L1756.23 2286.16 L1765.54 2286.16 Q1771.79 2286.16 1775.69 2282.65 Q1777.46 2281.04 1778.52 2277.69 Q1779.58 2274.34 1779.58 2272.02 Z" fill="#000000" fill-rule="nonzero" fill-opacity="1" /><path clip-path="url(#clip930)" d="M1822.76 2261.02 Q1823.03 2261.29 1823.03 2261.67 Q1823.03 2262.06 1822.76 2262.33 Q1822.49 2262.6 1822.11 2262.6 L1793.21 2262.6 Q1792.82 2262.6 1792.55 2262.33 Q1792.28 2262.06 1792.28 2261.67 Q1792.28 2261.29 1792.55 2261.02 Q1792.82 2260.75 1793.21 2260.75 L1822.11 2260.75 Q1822.49 2260.75 1822.76 2261.02 Z" fill="#000000" fill-rule="nonzero" fill-opacity="1" /><path clip-path="url(#clip930)" d="M1827.85 2246.86 L1827.85 2245.42 Q1833.4 2245.42 1836.26 2242.47 Q1837.05 2242.47 1837.19 2242.65 Q1837.32 2242.83 1837.32 2243.66 L1837.32 2269.57 Q1837.32 2270.94 1838 2271.37 Q1838.67 2271.8 1841.63 2271.8 L1843.09 2271.8 L1843.09 2273.22 Q1841.47 2273.08 1835.61 2273.08 Q1829.75 2273.08 1828.15 2273.22 L1828.15 2271.8 L1829.61 2271.8 Q1832.52 2271.8 1833.22 2271.39 Q1833.92 2270.96 1833.92 2269.57 L1833.92 2245.65 Q1831.5 2246.86 1827.85 2246.86 Z" fill="#000000" fill-rule="nonzero" fill-opacity="1" /><path clip-path="url(#clip930)" d="M1875.19 2292.21 Q1875.19 2281.07 1879.34 2272.09 Q1881.11 2268.32 1883.59 2265.16 Q1886.07 2262.01 1887.72 2260.62 Q1889.36 2259.24 1889.81 2259.24 Q1890.45 2259.24 1890.49 2259.88 Q1890.49 2260.2 1889.62 2261.01 Q1878.99 2271.83 1879.02 2292.21 Q1879.02 2312.67 1889.36 2323.07 Q1890.49 2324.2 1890.49 2324.55 Q1890.49 2325.19 1889.81 2325.19 Q1889.36 2325.19 1887.78 2323.87 Q1886.2 2322.55 1883.75 2319.53 Q1881.31 2316.5 1879.54 2312.79 Q1875.19 2303.81 1875.19 2292.21 Z" fill="#000000" fill-rule="nonzero" fill-opacity="1" /><path clip-path="url(#clip930)" d="M1900.52 2308.7 L1900.52 2306.68 L1902.09 2306.68 Q1905.67 2306.68 1906.47 2306.1 Q1907.31 2305.48 1907.31 2303.55 L1907.31 2268.8 Q1907.31 2266.9 1906.47 2266.32 Q1905.64 2265.71 1902.09 2265.71 L1900.52 2265.71 L1900.52 2263.65 L1923.8 2263.65 Q1930.47 2263.65 1934.91 2267.32 Q1939.36 2270.99 1939.36 2275.92 Q1939.36 2280.81 1934.81 2284.36 Q1930.31 2287.87 1924.32 2287.87 L1913.17 2287.87 L1913.17 2303.55 Q1913.17 2305.45 1913.98 2306.06 Q1914.81 2306.68 1918.39 2306.68 L1919.97 2306.68 L1919.97 2308.7 Q1917.65 2308.51 1910.21 2308.51 Q1902.83 2308.51 1900.52 2308.7 M1912.98 2286.16 L1922.06 2286.16 Q1925.02 2286.16 1927.18 2285.32 Q1929.34 2284.49 1930.31 2283.49 Q1931.3 2282.46 1931.85 2280.81 Q1932.43 2279.14 1932.5 2278.24 Q1932.56 2277.3 1932.56 2275.92 Q1932.56 2274.47 1932.5 2273.57 Q1932.43 2272.63 1931.85 2270.99 Q1931.3 2269.32 1930.31 2268.32 Q1929.34 2267.29 1927.18 2266.51 Q1925.06 2265.71 1922.06 2265.71 L1916.2 2265.71 Q1913.95 2265.71 1913.46 2266.16 Q1912.98 2266.61 1912.98 2268.35 L1912.98 2286.16 Z" fill="#000000" fill-rule="nonzero" fill-opacity="1" /><path clip-path="url(#clip930)" d="M1944.92 2302.42 Q1944.92 2296.82 1951.52 2293.86 Q1955.48 2291.96 1963.66 2291.47 L1963.66 2289.06 Q1963.66 2284.97 1961.5 2282.81 Q1959.38 2280.62 1956.67 2280.62 Q1951.84 2280.62 1949.52 2283.65 Q1951.49 2283.71 1952.2 2284.71 Q1952.91 2285.68 1952.91 2286.68 Q1952.91 2288 1952.07 2288.87 Q1951.26 2289.7 1949.88 2289.7 Q1948.56 2289.7 1947.69 2288.9 Q1946.82 2288.06 1946.82 2286.61 Q1946.82 2283.39 1949.72 2281.26 Q1952.65 2279.14 1956.8 2279.14 Q1962.21 2279.14 1965.82 2282.78 Q1966.95 2283.91 1967.49 2285.35 Q1968.07 2286.8 1968.14 2287.77 Q1968.2 2288.7 1968.2 2290.57 L1968.2 2303.74 Q1968.2 2304.13 1968.33 2304.78 Q1968.46 2305.42 1969.04 2306.26 Q1969.65 2307.06 1970.65 2307.06 Q1973.03 2307.06 1973 2302.84 L1973 2299.14 L1974.68 2299.14 L1974.68 2302.84 Q1974.68 2306.35 1972.81 2307.74 Q1970.97 2309.09 1969.27 2309.09 Q1967.08 2309.09 1965.69 2307.48 Q1964.31 2305.87 1964.11 2303.68 Q1963.11 2306.19 1960.83 2307.83 Q1958.57 2309.44 1955.48 2309.44 Q1953.1 2309.44 1950.84 2308.83 Q1948.62 2308.25 1946.75 2306.61 Q1944.92 2304.94 1944.92 2302.42 M1950.01 2302.36 Q1950.01 2304.81 1951.75 2306.39 Q1953.48 2307.96 1955.93 2307.96 Q1958.7 2307.96 1961.18 2305.84 Q1963.66 2303.68 1963.66 2299.46 L1963.66 2292.86 Q1956.35 2293.12 1953.16 2296.05 Q1950.01 2298.95 1950.01 2302.36 Z" fill="#000000" fill-rule="nonzero" fill-opacity="1" /><path clip-path="url(#clip930)" d="M2011.91 2276.36 Q2012.18 2276.64 2012.18 2277.02 Q2012.18 2277.4 2011.91 2277.67 Q2011.64 2277.94 2011.25 2277.94 L1982.35 2277.94 Q1981.97 2277.94 1981.7 2277.67 Q1981.43 2277.4 1981.43 2277.02 Q1981.43 2276.64 1981.7 2276.36 Q1981.97 2276.09 1982.35 2276.09 L2011.25 2276.09 Q2011.64 2276.09 2011.91 2276.36 Z" fill="#000000" fill-rule="nonzero" fill-opacity="1" /><path clip-path="url(#clip930)" d="M2017 2262.21 L2017 2260.76 Q2022.54 2260.76 2025.41 2257.81 Q2026.19 2257.81 2026.33 2257.99 Q2026.47 2258.17 2026.47 2259.01 L2026.47 2284.91 Q2026.47 2286.28 2027.14 2286.71 Q2027.82 2287.14 2030.77 2287.14 L2032.24 2287.14 L2032.24 2288.56 Q2030.61 2288.43 2024.75 2288.43 Q2018.89 2288.43 2017.29 2288.56 L2017.29 2287.14 L2018.76 2287.14 Q2021.66 2287.14 2022.36 2286.74 Q2023.06 2286.31 2023.06 2284.91 L2023.06 2260.99 Q2020.65 2262.21 2017 2262.21 Z" fill="#000000" fill-rule="nonzero" fill-opacity="1" /><path clip-path="url(#clip930)" d="M2046.9 2324.55 Q2046.9 2324.23 2047.74 2323.42 Q2058.37 2312.6 2058.37 2292.21 Q2058.37 2271.76 2048.16 2261.43 Q2046.9 2260.23 2046.9 2259.88 Q2046.9 2259.24 2047.55 2259.24 Q2048 2259.24 2049.57 2260.56 Q2051.18 2261.88 2053.6 2264.9 Q2056.05 2267.93 2057.85 2271.64 Q2062.2 2280.62 2062.2 2292.21 Q2062.2 2303.36 2058.04 2312.34 Q2056.27 2316.11 2053.79 2319.27 Q2051.31 2322.42 2049.67 2323.81 Q2048.03 2325.19 2047.55 2325.19 Q2046.9 2325.19 2046.9 2324.55 Z" fill="#000000" fill-rule="nonzero" fill-opacity="1" /><polyline clip-path="url(#clip930)" style="stroke:#000000; stroke-linecap:round; stroke-linejoin:round; stroke-width:4; stroke-opacity:1; fill:none" points="273.464,2144.72 273.464,47.2441 "/>
<polyline clip-path="url(#clip930)" style="stroke:#000000; stroke-linecap:round; stroke-linejoin:round; stroke-width:4; stroke-opacity:1; fill:none" points="273.464,1999.32 292.362,1999.32 "/>
<polyline clip-path="url(#clip930)" style="stroke:#000000; stroke-linecap:round; stroke-linejoin:round; stroke-width:4; stroke-opacity:1; fill:none" points="273.464,1569.16 292.362,1569.16 "/>
<polyline clip-path="url(#clip930)" style="stroke:#000000; stroke-linecap:round; stroke-linejoin:round; stroke-width:4; stroke-opacity:1; fill:none" points="273.464,1139 292.362,1139 "/>
<polyline clip-path="url(#clip930)" style="stroke:#000000; stroke-linecap:round; stroke-linejoin:round; stroke-width:4; stroke-opacity:1; fill:none" points="273.464,708.835 292.362,708.835 "/>
<polyline clip-path="url(#clip930)" style="stroke:#000000; stroke-linecap:round; stroke-linejoin:round; stroke-width:4; stroke-opacity:1; fill:none" points="273.464,278.672 292.362,278.672 "/>
<path clip-path="url(#clip930)" d="M151.122 1985.12 Q147.511 1985.12 145.682 1988.69 Q143.877 1992.23 143.877 1999.36 Q143.877 2006.47 145.682 2010.03 Q147.511 2013.57 151.122 2013.57 Q154.756 2013.57 156.562 2010.03 Q158.39 2006.47 158.39 1999.36 Q158.39 1992.23 156.562 1988.69 Q154.756 1985.12 151.122 1985.12 M151.122 1981.42 Q156.932 1981.42 159.988 1986.03 Q163.066 1990.61 163.066 1999.36 Q163.066 2008.09 159.988 2012.69 Q156.932 2017.28 151.122 2017.28 Q145.312 2017.28 142.233 2012.69 Q139.178 2008.09 139.178 1999.36 Q139.178 1990.61 142.233 1986.03 Q145.312 1981.42 151.122 1981.42 Z" fill="#000000" fill-rule="nonzero" fill-opacity="1" /><path clip-path="url(#clip930)" d="M171.284 2010.72 L176.168 2010.72 L176.168 2016.6 L171.284 2016.6 L171.284 2010.72 Z" fill="#000000" fill-rule="nonzero" fill-opacity="1" /><path clip-path="url(#clip930)" d="M196.353 1985.12 Q192.742 1985.12 190.913 1988.69 Q189.108 1992.23 189.108 1999.36 Q189.108 2006.47 190.913 2010.03 Q192.742 2013.57 196.353 2013.57 Q199.987 2013.57 201.793 2010.03 Q203.622 2006.47 203.622 1999.36 Q203.622 1992.23 201.793 1988.69 Q199.987 1985.12 196.353 1985.12 M196.353 1981.42 Q202.163 1981.42 205.219 1986.03 Q208.298 1990.61 208.298 1999.36 Q208.298 2008.09 205.219 2012.69 Q202.163 2017.28 196.353 2017.28 Q190.543 2017.28 187.464 2012.69 Q184.409 2008.09 184.409 1999.36 Q184.409 1990.61 187.464 1986.03 Q190.543 1981.42 196.353 1981.42 Z" fill="#000000" fill-rule="nonzero" fill-opacity="1" /><path clip-path="url(#clip930)" d="M216.561 1982.04 L234.918 1982.04 L234.918 1985.98 L220.844 1985.98 L220.844 1994.45 Q221.862 1994.1 222.881 1993.94 Q223.899 1993.76 224.918 1993.76 Q230.705 1993.76 234.084 1996.93 Q237.464 2000.1 237.464 2005.52 Q237.464 2011.09 233.992 2014.2 Q230.52 2017.28 224.2 2017.28 Q222.024 2017.28 219.756 2016.91 Q217.51 2016.53 215.103 2015.79 L215.103 2011.09 Q217.186 2012.23 219.409 2012.78 Q221.631 2013.34 224.108 2013.34 Q228.112 2013.34 230.45 2011.23 Q232.788 2009.13 232.788 2005.52 Q232.788 2001.91 230.45 1999.8 Q228.112 1997.69 224.108 1997.69 Q222.233 1997.69 220.358 1998.11 Q218.506 1998.53 216.561 1999.41 L216.561 1982.04 Z" fill="#000000" fill-rule="nonzero" fill-opacity="1" /><path clip-path="url(#clip930)" d="M149.965 1554.96 Q146.353 1554.96 144.525 1558.52 Q142.719 1562.07 142.719 1569.2 Q142.719 1576.3 144.525 1579.87 Q146.353 1583.41 149.965 1583.41 Q153.599 1583.41 155.404 1579.87 Q157.233 1576.3 157.233 1569.2 Q157.233 1562.07 155.404 1558.52 Q153.599 1554.96 149.965 1554.96 M149.965 1551.26 Q155.775 1551.26 158.83 1555.86 Q161.909 1560.45 161.909 1569.2 Q161.909 1577.92 158.83 1582.53 Q155.775 1587.11 149.965 1587.11 Q144.154 1587.11 141.076 1582.53 Q138.02 1577.92 138.02 1569.2 Q138.02 1560.45 141.076 1555.86 Q144.154 1551.26 149.965 1551.26 Z" fill="#000000" fill-rule="nonzero" fill-opacity="1" /><path clip-path="url(#clip930)" d="M170.126 1580.56 L175.011 1580.56 L175.011 1586.44 L170.126 1586.44 L170.126 1580.56 Z" fill="#000000" fill-rule="nonzero" fill-opacity="1" /><path clip-path="url(#clip930)" d="M195.196 1554.96 Q191.585 1554.96 189.756 1558.52 Q187.95 1562.07 187.95 1569.2 Q187.95 1576.3 189.756 1579.87 Q191.585 1583.41 195.196 1583.41 Q198.83 1583.41 200.636 1579.87 Q202.464 1576.3 202.464 1569.2 Q202.464 1562.07 200.636 1558.52 Q198.83 1554.96 195.196 1554.96 M195.196 1551.26 Q201.006 1551.26 204.061 1555.86 Q207.14 1560.45 207.14 1569.2 Q207.14 1577.92 204.061 1582.53 Q201.006 1587.11 195.196 1587.11 Q189.386 1587.11 186.307 1582.53 Q183.251 1577.92 183.251 1569.2 Q183.251 1560.45 186.307 1555.86 Q189.386 1551.26 195.196 1551.26 Z" fill="#000000" fill-rule="nonzero" fill-opacity="1" /><path clip-path="url(#clip930)" d="M225.936 1567.3 Q222.788 1567.3 220.936 1569.45 Q219.108 1571.6 219.108 1575.35 Q219.108 1579.08 220.936 1581.26 Q222.788 1583.41 225.936 1583.41 Q229.084 1583.41 230.913 1581.26 Q232.765 1579.08 232.765 1575.35 Q232.765 1571.6 230.913 1569.45 Q229.084 1567.3 225.936 1567.3 M235.219 1552.64 L235.219 1556.9 Q233.459 1556.07 231.654 1555.63 Q229.872 1555.19 228.112 1555.19 Q223.483 1555.19 221.029 1558.32 Q218.598 1561.44 218.251 1567.76 Q219.617 1565.75 221.677 1564.68 Q223.737 1563.59 226.214 1563.59 Q231.422 1563.59 234.432 1566.77 Q237.464 1569.91 237.464 1575.35 Q237.464 1580.68 234.316 1583.89 Q231.168 1587.11 225.936 1587.11 Q219.941 1587.11 216.77 1582.53 Q213.598 1577.92 213.598 1569.2 Q213.598 1561 217.487 1556.14 Q221.376 1551.26 227.927 1551.26 Q229.686 1551.26 231.469 1551.6 Q233.274 1551.95 235.219 1552.64 Z" fill="#000000" fill-rule="nonzero" fill-opacity="1" /><path clip-path="url(#clip930)" d="M151.029 1124.8 Q147.418 1124.8 145.59 1128.36 Q143.784 1131.9 143.784 1139.03 Q143.784 1146.14 145.59 1149.7 Q147.418 1153.25 151.029 1153.25 Q154.664 1153.25 156.469 1149.7 Q158.298 1146.14 158.298 1139.03 Q158.298 1131.9 156.469 1128.36 Q154.664 1124.8 151.029 1124.8 M151.029 1121.09 Q156.84 1121.09 159.895 1125.7 Q162.974 1130.28 162.974 1139.03 Q162.974 1147.76 159.895 1152.37 Q156.84 1156.95 151.029 1156.95 Q145.219 1156.95 142.141 1152.37 Q139.085 1147.76 139.085 1139.03 Q139.085 1130.28 142.141 1125.7 Q145.219 1121.09 151.029 1121.09 Z" fill="#000000" fill-rule="nonzero" fill-opacity="1" /><path clip-path="url(#clip930)" d="M171.191 1150.4 L176.076 1150.4 L176.076 1156.28 L171.191 1156.28 L171.191 1150.4 Z" fill="#000000" fill-rule="nonzero" fill-opacity="1" /><path clip-path="url(#clip930)" d="M196.261 1124.8 Q192.649 1124.8 190.821 1128.36 Q189.015 1131.9 189.015 1139.03 Q189.015 1146.14 190.821 1149.7 Q192.649 1153.25 196.261 1153.25 Q199.895 1153.25 201.7 1149.7 Q203.529 1146.14 203.529 1139.03 Q203.529 1131.9 201.7 1128.36 Q199.895 1124.8 196.261 1124.8 M196.261 1121.09 Q202.071 1121.09 205.126 1125.7 Q208.205 1130.28 208.205 1139.03 Q208.205 1147.76 205.126 1152.37 Q202.071 1156.95 196.261 1156.95 Q190.45 1156.95 187.372 1152.37 Q184.316 1147.76 184.316 1139.03 Q184.316 1130.28 187.372 1125.7 Q190.45 1121.09 196.261 1121.09 Z" fill="#000000" fill-rule="nonzero" fill-opacity="1" /><path clip-path="url(#clip930)" d="M215.242 1121.72 L237.464 1121.72 L237.464 1123.71 L224.918 1156.28 L220.034 1156.28 L231.839 1125.65 L215.242 1125.65 L215.242 1121.72 Z" fill="#000000" fill-rule="nonzero" fill-opacity="1" /><path clip-path="url(#clip930)" d="M150.219 694.634 Q146.608 694.634 144.779 698.198 Q142.974 701.74 142.974 708.87 Q142.974 715.976 144.779 719.541 Q146.608 723.083 150.219 723.083 Q153.853 723.083 155.659 719.541 Q157.488 715.976 157.488 708.87 Q157.488 701.74 155.659 698.198 Q153.853 694.634 150.219 694.634 M150.219 690.93 Q156.029 690.93 159.085 695.536 Q162.164 700.12 162.164 708.87 Q162.164 717.596 159.085 722.203 Q156.029 726.786 150.219 726.786 Q144.409 726.786 141.33 722.203 Q138.275 717.596 138.275 708.87 Q138.275 700.12 141.33 695.536 Q144.409 690.93 150.219 690.93 Z" fill="#000000" fill-rule="nonzero" fill-opacity="1" /><path clip-path="url(#clip930)" d="M170.381 720.235 L175.265 720.235 L175.265 726.115 L170.381 726.115 L170.381 720.235 Z" fill="#000000" fill-rule="nonzero" fill-opacity="1" /><path clip-path="url(#clip930)" d="M195.45 694.634 Q191.839 694.634 190.011 698.198 Q188.205 701.74 188.205 708.87 Q188.205 715.976 190.011 719.541 Q191.839 723.083 195.45 723.083 Q199.085 723.083 200.89 719.541 Q202.719 715.976 202.719 708.87 Q202.719 701.74 200.89 698.198 Q199.085 694.634 195.45 694.634 M195.45 690.93 Q201.261 690.93 204.316 695.536 Q207.395 700.12 207.395 708.87 Q207.395 717.596 204.316 722.203 Q201.261 726.786 195.45 726.786 Q189.64 726.786 186.562 722.203 Q183.506 717.596 183.506 708.87 Q183.506 700.12 186.562 695.536 Q189.64 690.93 195.45 690.93 Z" fill="#000000" fill-rule="nonzero" fill-opacity="1" /><path clip-path="url(#clip930)" d="M225.612 709.703 Q222.279 709.703 220.358 711.485 Q218.46 713.268 218.46 716.393 Q218.46 719.518 220.358 721.3 Q222.279 723.083 225.612 723.083 Q228.946 723.083 230.867 721.3 Q232.788 719.495 232.788 716.393 Q232.788 713.268 230.867 711.485 Q228.969 709.703 225.612 709.703 M220.936 707.712 Q217.927 706.971 216.237 704.911 Q214.571 702.851 214.571 699.888 Q214.571 695.745 217.51 693.337 Q220.473 690.93 225.612 690.93 Q230.774 690.93 233.714 693.337 Q236.654 695.745 236.654 699.888 Q236.654 702.851 234.964 704.911 Q233.297 706.971 230.311 707.712 Q233.691 708.499 235.566 710.791 Q237.464 713.083 237.464 716.393 Q237.464 721.416 234.385 724.101 Q231.33 726.786 225.612 726.786 Q219.895 726.786 216.816 724.101 Q213.76 721.416 213.76 716.393 Q213.76 713.083 215.659 710.791 Q217.557 708.499 220.936 707.712 M219.223 700.328 Q219.223 703.013 220.89 704.518 Q222.58 706.022 225.612 706.022 Q228.622 706.022 230.311 704.518 Q232.024 703.013 232.024 700.328 Q232.024 697.643 230.311 696.138 Q228.622 694.634 225.612 694.634 Q222.58 694.634 220.89 696.138 Q219.223 697.643 219.223 700.328 Z" fill="#000000" fill-rule="nonzero" fill-opacity="1" /><path clip-path="url(#clip930)" d="M150.312 264.471 Q146.701 264.471 144.872 268.035 Q143.066 271.577 143.066 278.707 Q143.066 285.813 144.872 289.378 Q146.701 292.919 150.312 292.919 Q153.946 292.919 155.752 289.378 Q157.58 285.813 157.58 278.707 Q157.58 271.577 155.752 268.035 Q153.946 264.471 150.312 264.471 M150.312 260.767 Q156.122 260.767 159.177 265.373 Q162.256 269.957 162.256 278.707 Q162.256 287.433 159.177 292.04 Q156.122 296.623 150.312 296.623 Q144.502 296.623 141.423 292.04 Q138.367 287.433 138.367 278.707 Q138.367 269.957 141.423 265.373 Q144.502 260.767 150.312 260.767 Z" fill="#000000" fill-rule="nonzero" fill-opacity="1" /><path clip-path="url(#clip930)" d="M170.474 290.072 L175.358 290.072 L175.358 295.952 L170.474 295.952 L170.474 290.072 Z" fill="#000000" fill-rule="nonzero" fill-opacity="1" /><path clip-path="url(#clip930)" d="M195.543 264.471 Q191.932 264.471 190.103 268.035 Q188.298 271.577 188.298 278.707 Q188.298 285.813 190.103 289.378 Q191.932 292.919 195.543 292.919 Q199.177 292.919 200.983 289.378 Q202.811 285.813 202.811 278.707 Q202.811 271.577 200.983 268.035 Q199.177 264.471 195.543 264.471 M195.543 260.767 Q201.353 260.767 204.409 265.373 Q207.487 269.957 207.487 278.707 Q207.487 287.433 204.409 292.04 Q201.353 296.623 195.543 296.623 Q189.733 296.623 186.654 292.04 Q183.599 287.433 183.599 278.707 Q183.599 269.957 186.654 265.373 Q189.733 260.767 195.543 260.767 Z" fill="#000000" fill-rule="nonzero" fill-opacity="1" /><path clip-path="url(#clip930)" d="M215.844 295.234 L215.844 290.975 Q217.603 291.808 219.409 292.248 Q221.214 292.688 222.95 292.688 Q227.58 292.688 230.01 289.586 Q232.464 286.461 232.811 280.119 Q231.469 282.109 229.409 283.174 Q227.348 284.239 224.848 284.239 Q219.663 284.239 216.631 281.114 Q213.622 277.966 213.622 272.526 Q213.622 267.202 216.77 263.984 Q219.918 260.767 225.149 260.767 Q231.145 260.767 234.293 265.373 Q237.464 269.957 237.464 278.707 Q237.464 286.878 233.575 291.762 Q229.709 296.623 223.159 296.623 Q221.399 296.623 219.594 296.276 Q217.788 295.929 215.844 295.234 M225.149 280.582 Q228.297 280.582 230.126 278.429 Q231.978 276.276 231.978 272.526 Q231.978 268.799 230.126 266.646 Q228.297 264.471 225.149 264.471 Q222.001 264.471 220.149 266.646 Q218.321 268.799 218.321 272.526 Q218.321 276.276 220.149 278.429 Q222.001 280.582 225.149 280.582 Z" fill="#000000" fill-rule="nonzero" fill-opacity="1" /><path clip-path="url(#clip930)" d="M48.658 1470.49 L72.3066 1479.21 L72.3066 1461.74 L48.658 1470.49 M42.3241 1474.12 L42.3241 1466.83 L89.8441 1448.72 L89.8441 1455.4 L77.6538 1459.73 L77.6538 1481.15 L89.8441 1485.48 L89.8441 1492.26 L42.3241 1474.12 Z" fill="#000000" fill-rule="nonzero" fill-opacity="1" /><path clip-path="url(#clip930)" d="M54.1961 1442.04 L54.1961 1436.18 L89.8441 1436.18 L89.8441 1442.04 L54.1961 1442.04 M40.3189 1442.04 L40.3189 1436.18 L47.7349 1436.18 L47.7349 1442.04 L40.3189 1442.04 Z" fill="#000000" fill-rule="nonzero" fill-opacity="1" /><path clip-path="url(#clip930)" d="M59.6706 1403.27 Q59.0977 1404.26 58.8431 1405.43 Q58.5566 1406.58 58.5566 1407.98 Q58.5566 1412.95 61.8032 1415.62 Q65.0178 1418.26 71.0653 1418.26 L89.8441 1418.26 L89.8441 1424.15 L54.1961 1424.15 L54.1961 1418.26 L59.7343 1418.26 Q56.4878 1416.41 54.9282 1413.45 Q53.3368 1410.49 53.3368 1406.26 Q53.3368 1405.66 53.4323 1404.92 Q53.4959 1404.19 53.6551 1403.3 L59.6706 1403.27 Z" fill="#000000" fill-rule="nonzero" fill-opacity="1" /><path clip-path="url(#clip930)" d="M45.9844 1340.57 L52.7639 1340.57 Q49.7401 1343.81 48.2442 1347.51 Q46.7483 1351.17 46.7483 1355.3 Q46.7483 1363.45 51.7453 1367.78 Q56.7106 1372.11 66.1318 1372.11 Q75.5213 1372.11 80.5183 1367.78 Q85.4836 1363.45 85.4836 1355.3 Q85.4836 1351.17 83.9876 1347.51 Q82.4917 1343.81 79.468 1340.57 L86.1838 1340.57 Q88.4755 1343.94 89.6213 1347.73 Q90.7671 1351.48 90.7671 1355.69 Q90.7671 1366.48 84.1786 1372.68 Q77.5583 1378.89 66.1318 1378.89 Q54.6736 1378.89 48.0851 1372.68 Q41.4647 1366.48 41.4647 1355.69 Q41.4647 1351.42 42.6106 1347.67 Q43.7246 1343.88 45.9844 1340.57 Z" fill="#000000" fill-rule="nonzero" fill-opacity="1" /><path clip-path="url(#clip930)" d="M58.302 1317.08 Q58.302 1321.79 61.9941 1324.53 Q65.6544 1327.26 72.0519 1327.26 Q78.4495 1327.26 82.1416 1324.56 Q85.8019 1321.82 85.8019 1317.08 Q85.8019 1312.4 82.1098 1309.66 Q78.4177 1306.92 72.0519 1306.92 Q65.7181 1306.92 62.026 1309.66 Q58.302 1312.4 58.302 1317.08 M53.3368 1317.08 Q53.3368 1309.44 58.302 1305.08 Q63.2673 1300.72 72.0519 1300.72 Q80.8048 1300.72 85.8019 1305.08 Q90.7671 1309.44 90.7671 1317.08 Q90.7671 1324.75 85.8019 1329.11 Q80.8048 1333.44 72.0519 1333.44 Q63.2673 1333.44 58.302 1329.11 Q53.3368 1324.75 53.3368 1317.08 Z" fill="#000000" fill-rule="nonzero" fill-opacity="1" /><path clip-path="url(#clip930)" d="M40.3189 1291.01 L40.3189 1285.15 L89.8441 1285.15 L89.8441 1291.01 L40.3189 1291.01 Z" fill="#000000" fill-rule="nonzero" fill-opacity="1" /><path clip-path="url(#clip930)" d="M75.7759 1273.5 L54.1961 1273.5 L54.1961 1267.65 L75.5531 1267.65 Q80.6138 1267.65 83.1601 1265.67 Q85.6746 1263.7 85.6746 1259.75 Q85.6746 1255.01 82.6508 1252.27 Q79.6271 1249.51 74.4073 1249.51 L54.1961 1249.51 L54.1961 1243.65 L89.8441 1243.65 L89.8441 1249.51 L84.3696 1249.51 Q87.6161 1251.64 89.2075 1254.47 Q90.7671 1257.27 90.7671 1261 Q90.7671 1267.14 86.9477 1270.32 Q83.1283 1273.5 75.7759 1273.5 M53.3368 1258.77 L53.3368 1258.77 Z" fill="#000000" fill-rule="nonzero" fill-opacity="1" /><path clip-path="url(#clip930)" d="M61.0393 1203.83 Q57.0925 1201.64 55.2147 1198.58 Q53.3368 1195.52 53.3368 1191.39 Q53.3368 1185.82 57.2517 1182.79 Q61.1348 1179.77 68.328 1179.77 L89.8441 1179.77 L89.8441 1185.66 L68.519 1185.66 Q63.3946 1185.66 60.912 1187.47 Q58.4293 1189.29 58.4293 1193.01 Q58.4293 1197.56 61.453 1200.2 Q64.4768 1202.85 69.6966 1202.85 L89.8441 1202.85 L89.8441 1208.73 L68.519 1208.73 Q63.3628 1208.73 60.912 1210.55 Q58.4293 1212.36 58.4293 1216.15 Q58.4293 1220.64 61.4849 1223.28 Q64.5086 1225.92 69.6966 1225.92 L89.8441 1225.92 L89.8441 1231.81 L54.1961 1231.81 L54.1961 1225.92 L59.7343 1225.92 Q56.456 1223.92 54.8964 1221.11 Q53.3368 1218.31 53.3368 1214.46 Q53.3368 1210.58 55.3101 1207.87 Q57.2835 1205.14 61.0393 1203.83 Z" fill="#000000" fill-rule="nonzero" fill-opacity="1" /><path clip-path="url(#clip930)" d="M68.328 1138.46 L89.8441 1138.46 L89.8441 1144.31 L68.519 1144.31 Q63.4582 1144.31 60.9438 1146.29 Q58.4293 1148.26 58.4293 1152.21 Q58.4293 1156.95 61.453 1159.69 Q64.4768 1162.42 69.6966 1162.42 L89.8441 1162.42 L89.8441 1168.31 L54.1961 1168.31 L54.1961 1162.42 L59.7343 1162.42 Q56.5196 1160.32 54.9282 1157.49 Q53.3368 1154.62 53.3368 1150.9 Q53.3368 1144.76 57.1562 1141.61 Q60.9438 1138.46 68.328 1138.46 Z" fill="#000000" fill-rule="nonzero" fill-opacity="1" /><path clip-path="url(#clip930)" d="M42.3241 1105.8 L42.3241 1099.37 L84.4332 1099.37 L84.4332 1076.23 L89.8441 1076.23 L89.8441 1105.8 L42.3241 1105.8 Z" fill="#000000" fill-rule="nonzero" fill-opacity="1" /><path clip-path="url(#clip930)" d="M70.556 1040.39 L73.4206 1040.39 L73.4206 1067.32 Q79.468 1066.94 82.6508 1063.69 Q85.8019 1060.41 85.8019 1054.59 Q85.8019 1051.21 84.9743 1048.06 Q84.1468 1044.88 82.4917 1041.76 L88.0299 1041.76 Q89.3667 1044.91 90.0669 1048.22 Q90.7671 1051.53 90.7671 1054.94 Q90.7671 1063.47 85.8019 1068.47 Q80.8366 1073.43 72.3702 1073.43 Q63.6174 1073.43 58.493 1068.72 Q53.3368 1063.98 53.3368 1055.96 Q53.3368 1048.76 57.9837 1044.59 Q62.5989 1040.39 70.556 1040.39 M68.8373 1046.25 Q64.0312 1046.31 61.1666 1048.95 Q58.302 1051.56 58.302 1055.89 Q58.302 1060.79 61.0711 1063.75 Q63.8402 1066.68 68.8691 1067.13 L68.8373 1046.25 Z" fill="#000000" fill-rule="nonzero" fill-opacity="1" /><path clip-path="url(#clip930)" d="M68.328 1001.15 L89.8441 1001.15 L89.8441 1007 L68.519 1007 Q63.4582 1007 60.9438 1008.98 Q58.4293 1010.95 58.4293 1014.9 Q58.4293 1019.64 61.453 1022.38 Q64.4768 1025.11 69.6966 1025.11 L89.8441 1025.11 L89.8441 1031 L54.1961 1031 L54.1961 1025.11 L59.7343 1025.11 Q56.5196 1023.01 54.9282 1020.18 Q53.3368 1017.32 53.3368 1013.59 Q53.3368 1007.45 57.1562 1004.3 Q60.9438 1001.15 68.328 1001.15 Z" fill="#000000" fill-rule="nonzero" fill-opacity="1" /><path clip-path="url(#clip930)" d="M71.6063 966.009 Q65.2406 966.009 61.7395 968.651 Q58.2384 971.261 58.2384 976.003 Q58.2384 980.714 61.7395 983.356 Q65.2406 985.966 71.6063 985.966 Q77.9402 985.966 81.4414 983.356 Q84.9425 980.714 84.9425 976.003 Q84.9425 971.261 81.4414 968.651 Q77.9402 966.009 71.6063 966.009 M85.4199 960.153 Q94.5229 960.153 98.9471 964.195 Q103.403 968.237 103.403 976.576 Q103.403 979.664 102.926 982.401 Q102.48 985.138 101.525 987.716 L95.8279 987.716 Q97.2283 985.138 97.8967 982.624 Q98.5651 980.109 98.5651 977.499 Q98.5651 971.738 95.5414 968.874 Q92.5495 966.009 86.4703 966.009 L83.5739 966.009 Q86.7249 967.823 88.2845 970.656 Q89.8441 973.489 89.8441 977.436 Q89.8441 983.992 84.847 988.003 Q79.8499 992.013 71.6063 992.013 Q63.3309 992.013 58.3338 988.003 Q53.3368 983.992 53.3368 977.436 Q53.3368 973.489 54.8964 970.656 Q56.456 967.823 59.607 966.009 L54.1961 966.009 L54.1961 960.153 L85.4199 960.153 Z" fill="#000000" fill-rule="nonzero" fill-opacity="1" /><path clip-path="url(#clip930)" d="M44.0747 942.297 L54.1961 942.297 L54.1961 930.234 L58.7476 930.234 L58.7476 942.297 L78.0994 942.297 Q82.4599 942.297 83.7012 941.119 Q84.9425 939.91 84.9425 936.249 L84.9425 930.234 L89.8441 930.234 L89.8441 936.249 Q89.8441 943.029 87.3296 945.607 Q84.7834 948.185 78.0994 948.185 L58.7476 948.185 L58.7476 952.482 L54.1961 952.482 L54.1961 948.185 L44.0747 948.185 L44.0747 942.297 Z" fill="#000000" fill-rule="nonzero" fill-opacity="1" /><path clip-path="url(#clip930)" d="M68.328 892.899 L89.8441 892.899 L89.8441 898.755 L68.519 898.755 Q63.4582 898.755 60.9438 900.729 Q58.4293 902.702 58.4293 906.649 Q58.4293 911.391 61.453 914.129 Q64.4768 916.866 69.6966 916.866 L89.8441 916.866 L89.8441 922.754 L40.3189 922.754 L40.3189 916.866 L59.7343 916.866 Q56.5196 914.765 54.9282 911.932 Q53.3368 909.068 53.3368 905.344 Q53.3368 899.201 57.1562 896.05 Q60.9438 892.899 68.328 892.899 Z" fill="#000000" fill-rule="nonzero" fill-opacity="1" /><path clip-path="url(#clip930)" d="M73.5479 826.802 Q73.7412 826.802 74.4819 827.059 L88.7169 832.277 Q89.5542 832.567 89.7153 832.856 Q89.8441 833.146 89.8441 834.338 L89.8441 864.869 Q89.8441 865.61 89.8119 865.9 Q89.7797 866.19 89.6187 866.415 Q89.4576 866.64 89.1034 866.64 Q88.4592 866.64 88.1694 866.415 Q87.8795 866.157 87.8473 865.867 Q87.8151 865.578 87.8151 864.869 Q87.8151 863.259 87.7185 862.293 Q87.6219 861.326 87.4931 860.715 Q87.332 860.07 86.8812 859.748 Q86.4303 859.394 86.0438 859.233 Q85.6251 859.072 84.6912 858.847 L49.2647 850.022 Q48.2019 849.765 48.0409 849.765 Q47.429 849.765 47.2679 850.151 Q47.0747 850.505 46.9781 851.536 L46.8493 854.048 Q46.8493 854.821 46.8171 855.143 Q46.7849 855.433 46.6238 855.658 Q46.4628 855.884 46.1085 855.884 Q45.4966 855.884 45.2068 855.658 Q44.8847 855.401 44.8525 855.207 Q44.7881 854.982 44.7881 854.628 L44.9813 845.868 L44.7881 836.109 Q44.7881 835.046 45.5932 835.046 Q46.495 835.046 46.6882 835.497 Q46.8493 835.948 46.8493 837.559 Q46.8493 840.65 47.1713 842.067 Q47.4934 843.452 48.0409 843.839 Q48.5562 844.193 49.941 844.547 L85.5607 853.468 Q86.7523 853.79 87.0744 853.79 Q87.4287 853.79 87.5575 853.629 Q87.6541 853.436 87.7185 852.921 Q87.8151 852.341 87.8151 851.471 L87.8151 845.288 Q87.8151 843.42 87.5253 841.777 Q87.2354 840.135 86.8167 838.879 Q86.3981 837.591 85.6251 836.431 Q84.8522 835.272 84.1759 834.467 Q83.4673 833.629 82.3723 832.824 Q81.2451 831.987 80.4722 831.504 Q79.667 830.989 78.3788 830.409 Q77.0584 829.829 76.3176 829.539 Q75.5447 829.217 74.2243 828.734 Q73.5479 828.444 73.3547 828.348 Q73.1615 828.251 73.0004 828.09 Q72.8394 827.897 72.8394 827.607 Q72.8394 827.22 73.0648 827.027 Q73.2903 826.802 73.5479 826.802 Z" fill="#000000" fill-rule="nonzero" fill-opacity="1" /><path clip-path="url(#clip930)" d="M73.3547 804.743 Q62.2115 804.743 53.226 800.588 Q49.4579 798.817 46.3018 796.337 Q43.1456 793.857 41.7607 792.215 Q40.3759 790.572 40.3759 790.122 Q40.3759 789.477 41.02 789.445 Q41.3421 789.445 42.1472 790.315 Q52.9684 800.943 73.3547 800.911 Q93.8054 800.911 104.208 790.572 Q105.335 789.445 105.689 789.445 Q106.333 789.445 106.333 790.122 Q106.333 790.572 105.013 792.151 Q103.693 793.729 100.665 796.176 Q97.6379 798.624 93.9342 800.395 Q84.9488 804.743 73.3547 804.743 Z" fill="#000000" fill-rule="nonzero" fill-opacity="1" /><path clip-path="url(#clip930)" d="M89.8441 779.416 L87.8151 779.416 Q87.8151 775.905 87.3964 775.1 Q86.9456 774.295 84.82 774.295 L67.139 774.295 Q64.6913 774.295 64.0794 775.164 Q63.4675 776.002 63.4675 779.416 L61.4063 779.416 L60.6978 770.14 L67.6221 770.14 Q60.6978 767.049 60.6978 760.382 Q60.6978 752.653 67.139 751.59 Q64.6269 750.463 62.6623 748.112 Q60.6978 745.728 60.6978 742.025 Q60.6978 737.065 63.1454 735.1 Q64.7879 733.651 66.6237 733.361 Q68.4594 733.071 73.2259 733.071 L85.8184 733.071 Q87.2032 733.007 87.5253 731.944 Q87.8151 730.881 87.8151 727.918 L89.8441 727.918 Q89.6509 734.649 89.6509 735.294 Q89.6509 735.809 89.8441 742.765 L87.8151 742.765 Q87.8151 739.255 87.3964 738.45 Q86.9456 737.612 84.82 737.612 L69.4578 737.612 Q66.1084 737.612 64.1438 738.643 Q62.1471 739.674 62.1471 742.508 Q62.1471 745.922 65.0134 748.659 Q67.8797 751.397 72.7106 751.397 L84.82 751.397 Q86.9456 751.397 87.3964 750.591 Q87.8151 749.754 87.8151 746.244 L89.8441 746.244 Q89.6509 752.975 89.6509 753.651 Q89.6509 754.166 89.8441 761.09 L87.8151 761.09 Q87.8151 757.58 87.3964 756.775 Q86.9456 755.938 84.82 755.938 L69.4578 755.938 Q66.1084 755.938 64.1438 756.968 Q62.1471 757.999 62.1471 760.833 Q62.1471 764.247 65.0134 766.984 Q67.8797 769.722 72.7106 769.722 L84.82 769.722 Q86.9456 769.722 87.3964 768.917 Q87.8151 768.079 87.8151 764.601 L89.8441 764.601 Q89.6509 771.332 89.6509 771.976 Q89.6509 772.491 89.8441 779.416 Z" fill="#000000" fill-rule="nonzero" fill-opacity="1" /><path clip-path="url(#clip930)" d="M105.689 725.029 Q105.367 725.029 104.562 724.191 Q93.741 713.563 73.3547 713.563 Q52.904 713.563 42.5659 723.773 Q41.3743 725.029 41.02 725.029 Q40.3759 725.029 40.3759 724.385 Q40.3759 723.934 41.6963 722.356 Q43.0168 720.745 46.0441 718.33 Q49.0715 715.882 52.7751 714.079 Q61.7606 709.731 73.3547 709.731 Q84.4979 709.731 93.4834 713.885 Q97.2514 715.657 100.408 718.137 Q103.564 720.616 104.949 722.259 Q106.333 723.901 106.333 724.385 Q106.333 725.029 105.689 725.029 Z" fill="#000000" fill-rule="nonzero" fill-opacity="1" /><circle clip-path="url(#clip932)" cx="2293.91" cy="106.607" r="14.4" fill="#009af9" fill-rule="evenodd" fill-opacity="1" stroke="#000000" stroke-opacity="1" stroke-width="4.8"/>
<circle clip-path="url(#clip932)" cx="1963.06" cy="407.721" r="14.4" fill="#009af9" fill-rule="evenodd" fill-opacity="1" stroke="#000000" stroke-opacity="1" stroke-width="4.8"/>
<circle clip-path="url(#clip932)" cx="1633.79" cy="708.835" r="14.4" fill="#009af9" fill-rule="evenodd" fill-opacity="1" stroke="#000000" stroke-opacity="1" stroke-width="4.8"/>
<circle clip-path="url(#clip932)" cx="1306.1" cy="1052.97" r="14.4" fill="#009af9" fill-rule="evenodd" fill-opacity="1" stroke="#000000" stroke-opacity="1" stroke-width="4.8"/>
<circle clip-path="url(#clip932)" cx="979.959" cy="1354.08" r="14.4" fill="#009af9" fill-rule="evenodd" fill-opacity="1" stroke="#000000" stroke-opacity="1" stroke-width="4.8"/>
<circle clip-path="url(#clip932)" cx="655.367" cy="1698.21" r="14.4" fill="#009af9" fill-rule="evenodd" fill-opacity="1" stroke="#000000" stroke-opacity="1" stroke-width="4.8"/>
<circle clip-path="url(#clip932)" cx="332.312" cy="2085.36" r="14.4" fill="#009af9" fill-rule="evenodd" fill-opacity="1" stroke="#000000" stroke-opacity="1" stroke-width="4.8"/>
<polyline clip-path="url(#clip932)" style="stroke:#e26f46; stroke-linecap:round; stroke-linejoin:round; stroke-width:4; stroke-opacity:1; fill:none" points="-1773.38,4144.06 4367.16,-2001.16 "/>
</svg>
